<svg width="107" height="19" viewBox="0 0 107 19" fill="none" xmlns="http://www.w3.org/2000/svg">
<path d="M10.742 11.6023L8.94921 9.8448L10.742 8.08729V4.57227L5.37354 9.8448L10.742 15.1173V11.6023Z" fill="white"/>
<path d="M0 1.04761V18.642H17.898V1.04761H0ZM15.344 16.1313H2.55896V3.56316H15.344V16.1313Z" fill="white"/>
<path d="M28.1932 15.8755L29.4898 17.3144C29.2344 17.6041 28.9397 17.8551 28.6106 18.0676C27.8739 18.5601 27.0242 18.8112 26.0517 18.8112C24.7992 18.8112 23.753 18.4152 22.9131 17.6234C22.0782 16.8315 21.6558 15.861 21.6558 14.7167C21.6558 13.5724 22.0733 12.6019 22.9131 11.8101C23.7481 11.0182 24.7943 10.6223 26.0517 10.6223C26.9996 10.6223 27.8444 10.8734 28.5861 11.3755C28.9152 11.6025 29.2 11.8535 29.4309 12.1191L28.1342 13.5579C27.9623 13.3745 27.7707 13.2055 27.5595 13.0606C27.0733 12.7275 26.5674 12.5633 26.0517 12.5633C25.4377 12.5633 24.9171 12.7709 24.4898 13.191C24.0674 13.6062 23.8562 14.118 23.8562 14.7264C23.8562 15.3348 24.0674 15.8417 24.4898 16.2618C24.9122 16.677 25.4328 16.8895 26.0517 16.8895C26.5625 16.8895 27.0733 16.7253 27.5841 16.3922C27.81 16.2232 28.0163 16.059 28.1932 15.8755Z" fill="white"/>
<path d="M30.4229 18.589V10.8347H32.5643V15.0981L35.9435 10.8347H37.8001V18.5842H35.6587V14.3256L32.2795 18.589H30.4229Z" fill="white"/>
<path d="M39.4111 18.589V10.8347H41.5526V13.6593H44.4259V10.8347H46.5674V18.5842H44.4259V15.6486H41.5526V18.5842H39.4111V18.589Z" fill="white"/>
<path d="M48.1733 18.589V10.8347H54.1999V12.7178H50.3148V13.8234H53.3011V15.5954H50.3148V16.7011H54.3129V18.5842H48.1733V18.589Z" fill="white"/>
<path d="M55.4722 18.589V10.8347H59.0184C59.8828 10.8347 60.5852 11.0906 61.1304 11.6024C61.6756 12.1142 61.9457 12.7612 61.9457 13.5434C61.9457 14.3256 61.6756 14.9726 61.1304 15.4844C60.5852 15.9962 59.8828 16.2521 59.0184 16.2521H57.6087V18.5794H55.4722V18.589ZM57.6136 14.3787H58.9103C59.1559 14.3787 59.372 14.2966 59.5439 14.1276C59.7207 13.9635 59.8091 13.7655 59.8091 13.5482C59.8091 13.331 59.7207 13.133 59.5439 12.9688C59.3671 12.8047 59.1559 12.7178 58.9103 12.7178H57.6136V14.3787Z" fill="white"/>
<path d="M63.1045 18.589V10.8347H68.6252V12.8288H65.246V18.5842H63.1045V18.589Z" fill="white"/>
<path d="M69.5586 18.589V10.8347H71.7001V15.0981L75.0793 10.8347H76.9359V18.5842H74.7944V14.3256L71.4152 18.589H69.5586Z" fill="white"/>
<path d="M77.9282 18.5891L79.5638 15.7114C79.3084 15.5955 79.0825 15.4313 78.886 15.2237C78.4341 14.7795 78.2082 14.2049 78.2082 13.4952C78.2082 12.742 78.4783 12.1094 79.0186 11.6025C79.5589 11.0955 80.2465 10.8396 81.0815 10.8396H84.7996V18.5891H82.6581V16.1556H81.4744L80.1778 18.5891H77.9282ZM81.1945 14.2677H82.6581V12.7178H81.1945C80.9489 12.7178 80.7426 12.7902 80.5854 12.9399C80.4282 13.0896 80.3497 13.2731 80.3497 13.4952C80.3497 13.7173 80.4282 13.9008 80.5854 14.0504C80.7426 14.1953 80.9489 14.2677 81.1945 14.2677Z" fill="white"/>
<path d="M22.0827 8.71973V6.83669C22.1564 6.86566 22.2203 6.88497 22.2743 6.8898C22.4266 6.92843 22.5837 6.94291 22.7605 6.94291C23.3303 6.94291 23.7232 6.72081 23.9442 6.2766L23.9983 6.16555L21.2969 1.01855H23.6643L25.1034 4.22939H25.1476L26.3657 1.01855H28.7331L25.9728 6.77392C25.6339 7.45954 25.2409 7.981 24.789 8.3383C24.3372 8.69559 23.7773 8.87424 23.0994 8.87424C22.8146 8.87424 22.5641 8.8501 22.3578 8.79699L22.0827 8.71973Z" fill="white"/>
<path d="M29.3223 8.77778V1.02832H31.4637V3.85289H34.337V1.02832H36.4785V8.77778H34.3321V5.84216H31.4588V8.77778H29.3223Z" fill="white"/>
<path d="M38.0845 8.77778V1.02832H40.2259V5.29173L43.6052 1.02832H45.4617V8.77778H43.3203V4.51437L39.9411 8.77778H38.0845Z" fill="white"/>
<path d="M47.0728 8.77778V1.02832H50.5649C51.4294 1.02832 52.1023 1.22628 52.5934 1.61738C53.0797 2.00847 53.3253 2.49613 53.3253 3.08036C53.3253 3.60665 53.1239 4.03154 52.726 4.36469C52.5738 4.49023 52.3822 4.59645 52.1416 4.68819C52.4363 4.78959 52.6966 4.92961 52.9323 5.0986C53.4579 5.49935 53.7231 6.00632 53.7231 6.62435C53.7231 7.23755 53.4677 7.74935 52.9569 8.16459C52.4461 8.57982 51.7437 8.78261 50.8498 8.78261H47.0728V8.77778ZM49.2093 4.01705H50.393C50.619 4.01705 50.7958 3.95429 50.9284 3.83358C51.061 3.71287 51.1249 3.55353 51.1249 3.35074C51.1249 3.15278 51.061 2.98862 50.9284 2.86791C50.7958 2.7472 50.619 2.68444 50.393 2.68444H49.2093V4.01705ZM49.2093 7.11684H50.673C50.9186 7.11684 51.1249 7.04441 51.282 6.89474C51.4392 6.74506 51.5178 6.56158 51.5178 6.33948C51.5178 6.11738 51.4392 5.9339 51.282 5.78422C51.1249 5.63454 50.9235 5.56212 50.673 5.56212H49.2093V7.11684Z" fill="white"/>
<path d="M54.8188 8.77778V1.02832H60.8454V2.91137H56.9603V4.01705H59.9466V5.78905H56.9603V6.89474H60.9584V8.77778H54.8188Z" fill="white"/>
<path d="M62.1172 8.77778V1.02832H65.6634C66.5278 1.02832 67.2302 1.28422 67.7754 1.79602C68.3206 2.30783 68.5907 2.95482 68.5907 3.73701C68.5907 4.5192 68.3206 5.1662 67.7754 5.678C67.2302 6.1898 66.5278 6.4457 65.6634 6.4457H64.2538V8.77295H62.1172V8.77778ZM64.2587 4.57231H65.5553C65.8009 4.57231 66.017 4.49023 66.1889 4.32124C66.3657 4.15708 66.4542 3.95911 66.4542 3.74184C66.4542 3.52456 66.3657 3.3266 66.1889 3.16244C66.0121 2.99828 65.8009 2.91137 65.5553 2.91137H64.2587V4.57231Z" fill="white"/>
<path d="M75.8352 6.06425L77.1319 7.50309C76.8765 7.79279 76.5818 8.04387 76.2527 8.25631C75.516 8.7488 74.6663 8.99988 73.6938 8.99988C72.4413 8.99988 71.3951 8.60395 70.5552 7.81211C69.7203 7.02026 69.2979 6.04977 69.2979 4.90546C69.2979 3.76114 69.7153 2.79065 70.5552 1.9988C71.3902 1.20696 72.4364 0.811035 73.6938 0.811035C74.6417 0.811035 75.4865 1.06211 76.2282 1.56425C76.5573 1.79119 76.8421 2.04226 77.073 2.30782L75.7763 3.74666C75.6044 3.56318 75.4128 3.39419 75.2016 3.24934C74.7154 2.91619 74.2095 2.75202 73.6938 2.75202C73.0798 2.75202 72.5592 2.95964 72.1319 3.3797C71.7095 3.79494 71.4983 4.30674 71.4983 4.91511C71.4983 5.52348 71.7095 6.03046 72.1319 6.45052C72.5543 6.86576 73.0749 7.0782 73.6938 7.0782C74.2046 7.0782 74.7154 6.91404 75.2262 6.58088C75.4521 6.41672 75.6535 6.24773 75.8352 6.06425Z" fill="white"/>
<path d="M78.0654 8.77778V1.02832H80.2069V5.29173L83.5861 1.02832H85.4427V8.77778H83.3012V4.51437L79.922 8.77778H78.0654Z" fill="white"/>
<path d="M88.5715 8.77778V2.91137H86.376V1.02832H92.9085V2.91137H90.713V8.77778H88.5715Z" fill="white"/>
<path d="M93.8418 8.77778V1.02832H99.8684V2.91137H95.9833V4.01705H98.9695V5.78905H95.9833V6.89474H99.9813V8.77778H93.8418Z" fill="white"/>
<path d="M102.663 8.77778V2.91137H100.467V1.02832H107V2.91137H104.804V8.77778H102.663Z" fill="white"/>
</svg>
