<svg width="112" height="112" viewBox="0 0 112 112" fill="none" xmlns="http://www.w3.org/2000/svg">
<rect width="112" height="112" rx="56" fill="white"/>
<path d="M54 42C53 43 53.4 45.9 54 47C54 47 53 50.3 53 52L54 59L56 62L58 59L59 52C59 50.3 58 47 58 47C58.6 45.9 59 43 58 42" stroke="#1822B7" stroke-width="2" stroke-miterlimit="10" stroke-linecap="round" stroke-linejoin="round"/>
<path d="M54 42C53 43 53.4 45.9 54 47C54 47 53 50.3 53 52L54 59L56 62L58 59L59 52C59 50.3 58 47 58 47C58.6 45.9 59 43 58 42" stroke="url(#paint0_linear)" stroke-width="2" stroke-miterlimit="10" stroke-linecap="round" stroke-linejoin="round"/>
<path d="M59 38C61.8 36.1 61.5 34.9 61.9 32.2C62.1 30.7 62.1 29.2 61.4 27.8C60.8 26.6 59.6 25.7 58.3 25.3C57.6 25.1 56.8 25 56 25C55.2 25 54.4 25.1 53.7 25.4C52.4 25.8 51.2 26.7 50.6 27.9C49.9 29.2 50 30.8 50.1 32.3C50.4 35 50.2 36.2 53 38.1" stroke="#1822B7" stroke-width="2" stroke-miterlimit="10" stroke-linecap="round" stroke-linejoin="round"/>
<path d="M59 38C61.8 36.1 61.5 34.9 61.9 32.2C62.1 30.7 62.1 29.2 61.4 27.8C60.8 26.6 59.6 25.7 58.3 25.3C57.6 25.1 56.8 25 56 25C55.2 25 54.4 25.1 53.7 25.4C52.4 25.8 51.2 26.7 50.6 27.9C49.9 29.2 50 30.8 50.1 32.3C50.4 35 50.2 36.2 53 38.1" stroke="url(#paint1_linear)" stroke-width="2" stroke-miterlimit="10" stroke-linecap="round" stroke-linejoin="round"/>
<path d="M65 67C66.7 67 68 65.7 68 64L70 48C70 45 67.3 43.6 66 43L61 41C61 41 59 42 56 42C53 42 51 41 51 41L46 43C44.7 43.6 42 45 42 48L44 64C44 65.7 45.3 67 47 67" stroke="#1822B7" stroke-width="2" stroke-miterlimit="10" stroke-linecap="round" stroke-linejoin="round"/>
<path d="M65 67C66.7 67 68 65.7 68 64L70 48C70 45 67.3 43.6 66 43L61 41C61 41 59 42 56 42C53 42 51 41 51 41L46 43C44.7 43.6 42 45 42 48L44 64C44 65.7 45.3 67 47 67" stroke="url(#paint2_linear)" stroke-width="2" stroke-miterlimit="10" stroke-linecap="round" stroke-linejoin="round"/>
<path d="M48 57L51 76" stroke="#1822B7" stroke-width="2" stroke-miterlimit="10" stroke-linecap="round" stroke-linejoin="round"/>
<path d="M48 57L51 76" stroke="url(#paint3_linear)" stroke-width="2" stroke-miterlimit="10" stroke-linecap="round" stroke-linejoin="round"/>
<path d="M64 57L61 76" stroke="#1822B7" stroke-width="2" stroke-miterlimit="10" stroke-linecap="round" stroke-linejoin="round"/>
<path d="M64 57L61 76" stroke="url(#paint4_linear)" stroke-width="2" stroke-miterlimit="10" stroke-linecap="round" stroke-linejoin="round"/>
<path d="M25 59C32.7 59 39 65.3 39 73C39.8 72.1 40.8 71.4 42 70.9" stroke="#1822B7" stroke-width="2" stroke-miterlimit="10" stroke-linecap="round" stroke-linejoin="round"/>
<path d="M25 59C32.7 59 39 65.3 39 73C39.8 72.1 40.8 71.4 42 70.9" stroke="url(#paint5_linear)" stroke-width="2" stroke-miterlimit="10" stroke-linecap="round" stroke-linejoin="round"/>
<path d="M87 59C79.3 59 73 65.3 73 73C72.2 72.1 71.2 71.4 70 70.9" stroke="#1822B7" stroke-width="2" stroke-miterlimit="10" stroke-linecap="round" stroke-linejoin="round"/>
<path d="M87 59C79.3 59 73 65.3 73 73C72.2 72.1 71.2 71.4 70 70.9" stroke="url(#paint6_linear)" stroke-width="2" stroke-miterlimit="10" stroke-linecap="round" stroke-linejoin="round"/>
<path d="M46 85C46 82.2 43.8 80 41 80C39.7 80 38.5 80.5 37.6 81.4C36.5 77.7 33 75 29 75C27.6 75 26.2 75.3 25 75.9" stroke="#1822B7" stroke-width="2" stroke-miterlimit="10" stroke-linecap="round" stroke-linejoin="round"/>
<path d="M46 85C46 82.2 43.8 80 41 80C39.7 80 38.5 80.5 37.6 81.4C36.5 77.7 33 75 29 75C27.6 75 26.2 75.3 25 75.9" stroke="url(#paint7_linear)" stroke-width="2" stroke-miterlimit="10" stroke-linecap="round" stroke-linejoin="round"/>
<path d="M66 85C66 82.2 68.2 80 71 80C72.3 80 73.5 80.5 74.4 81.4C75.5 77.7 79 75 83 75C84.4 75 85.8 75.3 87 75.9" stroke="#1822B7" stroke-width="2" stroke-miterlimit="10" stroke-linecap="round" stroke-linejoin="round"/>
<path d="M66 85C66 82.2 68.2 80 71 80C72.3 80 73.5 80.5 74.4 81.4C75.5 77.7 79 75 83 75C84.4 75 85.8 75.3 87 75.9" stroke="url(#paint8_linear)" stroke-width="2" stroke-miterlimit="10" stroke-linecap="round" stroke-linejoin="round"/>
<path d="M45.1001 87C47.0001 82.9 51.2001 80 56.0001 80C60.8001 80 65.0001 82.9 66.9001 87" stroke="#1822B7" stroke-width="2" stroke-miterlimit="10" stroke-linecap="round" stroke-linejoin="round"/>
<path d="M45.1001 87C47.0001 82.9 51.2001 80 56.0001 80C60.8001 80 65.0001 82.9 66.9001 87" stroke="url(#paint9_linear)" stroke-width="2" stroke-miterlimit="10" stroke-linecap="round" stroke-linejoin="round"/>
<defs>
<linearGradient id="paint0_linear" x1="56" y1="42" x2="56" y2="62" gradientUnits="userSpaceOnUse">
<stop stop-color="#E1A352"/>
<stop offset="1" stop-color="#E3A655"/>
</linearGradient>
<linearGradient id="paint1_linear" x1="56.0222" y1="25" x2="56.0222" y2="38.1" gradientUnits="userSpaceOnUse">
<stop stop-color="#E1A352"/>
<stop offset="1" stop-color="#E3A655"/>
</linearGradient>
<linearGradient id="paint2_linear" x1="56" y1="41" x2="56" y2="67" gradientUnits="userSpaceOnUse">
<stop stop-color="#E1A352"/>
<stop offset="1" stop-color="#E3A655"/>
</linearGradient>
<linearGradient id="paint3_linear" x1="49.5" y1="57" x2="49.5" y2="76" gradientUnits="userSpaceOnUse">
<stop stop-color="#E1A352"/>
<stop offset="1" stop-color="#E3A655"/>
</linearGradient>
<linearGradient id="paint4_linear" x1="62.5" y1="57" x2="62.5" y2="76" gradientUnits="userSpaceOnUse">
<stop stop-color="#E1A352"/>
<stop offset="1" stop-color="#E3A655"/>
</linearGradient>
<linearGradient id="paint5_linear" x1="33.5" y1="59" x2="33.5" y2="73" gradientUnits="userSpaceOnUse">
<stop stop-color="#E1A352"/>
<stop offset="1" stop-color="#E3A655"/>
</linearGradient>
<linearGradient id="paint6_linear" x1="78.5" y1="59" x2="78.5" y2="73" gradientUnits="userSpaceOnUse">
<stop stop-color="#E1A352"/>
<stop offset="1" stop-color="#E3A655"/>
</linearGradient>
<linearGradient id="paint7_linear" x1="35.5" y1="75" x2="35.5" y2="85" gradientUnits="userSpaceOnUse">
<stop stop-color="#E1A352"/>
<stop offset="1" stop-color="#E3A655"/>
</linearGradient>
<linearGradient id="paint8_linear" x1="76.5" y1="75" x2="76.5" y2="85" gradientUnits="userSpaceOnUse">
<stop stop-color="#E1A352"/>
<stop offset="1" stop-color="#E3A655"/>
</linearGradient>
<linearGradient id="paint9_linear" x1="56.0001" y1="80" x2="56.0001" y2="87" gradientUnits="userSpaceOnUse">
<stop stop-color="#E1A352"/>
<stop offset="1" stop-color="#E3A655"/>
</linearGradient>
</defs>
</svg>
