<svg width="112" height="112" viewBox="0 0 112 112" fill="none" xmlns="http://www.w3.org/2000/svg">
<rect width="112" height="112" rx="56" fill="white"/>
<path d="M40.3333 53C40.3333 53 40.6333 47.9 44.3332 46L51.3332 43C51.3332 43 53.3332 44 56.3332 44C59.3332 44 61.3332 43 61.3332 43L68.3332 46C72.0332 47.9 72.3332 53 72.3332 53" stroke="#1822B7" stroke-width="2" stroke-miterlimit="10" stroke-linecap="round" stroke-linejoin="round"/>
<path d="M40.3333 53C40.3333 53 40.6333 47.9 44.3332 46L51.3332 43C51.3332 43 53.3332 44 56.3332 44C59.3332 44 61.3332 43 61.3332 43L68.3332 46C72.0332 47.9 72.3332 53 72.3332 53" stroke="url(#paint0_linear)" stroke-width="2" stroke-miterlimit="10" stroke-linecap="round" stroke-linejoin="round"/>
<path d="M59.3332 39C62.3332 37 62.3332 35.7 62.6332 32.8C62.8332 31.2 62.9332 29.5 62.1332 28.1C61.4332 26.8 60.1332 25.9 58.7332 25.4C58.0332 25.1 57.1332 25 56.3332 25C55.5332 25 54.6332 25.1 53.9332 25.4C52.5332 25.9 51.2332 26.8 50.5332 28.1C49.7332 29.5 49.8332 31.2 50.0332 32.8C50.3332 35.7 50.3332 37 53.3332 39" stroke="#1822B7" stroke-width="2" stroke-miterlimit="10" stroke-linecap="round" stroke-linejoin="round"/>
<path d="M59.3332 39C62.3332 37 62.3332 35.7 62.6332 32.8C62.8332 31.2 62.9332 29.5 62.1332 28.1C61.4332 26.8 60.1332 25.9 58.7332 25.4C58.0332 25.1 57.1332 25 56.3332 25C55.5332 25 54.6332 25.1 53.9332 25.4C52.5332 25.9 51.2332 26.8 50.5332 28.1C49.7332 29.5 49.8332 31.2 50.0332 32.8C50.3332 35.7 50.3332 37 53.3332 39" stroke="url(#paint1_linear)" stroke-width="2" stroke-miterlimit="10" stroke-linecap="round" stroke-linejoin="round"/>
<path d="M58.3333 44C59.3333 45 58.9333 47.9 58.3333 49C58.3333 49 59.3333 51.3 59.3333 53" stroke="#1822B7" stroke-width="2" stroke-miterlimit="10" stroke-linecap="round" stroke-linejoin="round"/>
<path d="M58.3333 44C59.3333 45 58.9333 47.9 58.3333 49C58.3333 49 59.3333 51.3 59.3333 53" stroke="url(#paint2_linear)" stroke-width="2" stroke-miterlimit="10" stroke-linecap="round" stroke-linejoin="round"/>
<path d="M53.3333 53C53.3333 51.3 54.3332 49 54.3332 49C53.7332 47.9 53.3333 45 54.3332 44" stroke="#1822B7" stroke-width="2" stroke-miterlimit="10" stroke-linecap="round" stroke-linejoin="round"/>
<path d="M53.3333 53C53.3333 51.3 54.3332 49 54.3332 49C53.7332 47.9 53.3333 45 54.3332 44" stroke="url(#paint3_linear)" stroke-width="2" stroke-miterlimit="10" stroke-linecap="round" stroke-linejoin="round"/>
<path d="M38.3332 69L29.3333 63V57H83.3332V63L74.3332 69" stroke="#1822B7" stroke-width="2" stroke-miterlimit="10" stroke-linecap="round" stroke-linejoin="round"/>
<path d="M38.3332 69L29.3333 63V57H83.3332V63L74.3332 69" stroke="url(#paint4_linear)" stroke-width="2" stroke-miterlimit="10" stroke-linecap="round" stroke-linejoin="round"/>
<path d="M44.3333 83V66C44.3333 65.4 44.7333 65 45.3333 65H67.3332C67.9332 65 68.3332 65.4 68.3332 66V83" stroke="#1822B7" stroke-width="2" stroke-miterlimit="10" stroke-linecap="round" stroke-linejoin="round"/>
<path d="M44.3333 83V66C44.3333 65.4 44.7333 65 45.3333 65H67.3332C67.9332 65 68.3332 65.4 68.3332 66V83" stroke="url(#paint5_linear)" stroke-width="2" stroke-miterlimit="10" stroke-linecap="round" stroke-linejoin="round"/>
<path d="M38.3333 65V87" stroke="#1822B7" stroke-width="2" stroke-miterlimit="10" stroke-linecap="square" stroke-linejoin="round"/>
<path d="M38.3333 65V87" stroke="url(#paint6_linear)" stroke-width="2" stroke-miterlimit="10" stroke-linecap="square" stroke-linejoin="round"/>
<path d="M74.3333 65V87" stroke="#1822B7" stroke-width="2" stroke-miterlimit="10" stroke-linecap="square" stroke-linejoin="round"/>
<path d="M74.3333 65V87" stroke="url(#paint7_linear)" stroke-width="2" stroke-miterlimit="10" stroke-linecap="square" stroke-linejoin="round"/>
<path d="M34.3333 57V46L36.3333 44" stroke="#1822B7" stroke-width="2" stroke-miterlimit="10" stroke-linecap="square" stroke-linejoin="round"/>
<path d="M34.3333 57V46L36.3333 44" stroke="url(#paint8_linear)" stroke-width="2" stroke-miterlimit="10" stroke-linecap="square" stroke-linejoin="round"/>
<path d="M38.3333 44C39.9901 44 41.3333 42.6569 41.3333 41C41.3333 39.3431 39.9901 38 38.3333 38C36.6764 38 35.3333 39.3431 35.3333 41C35.3333 42.6569 36.6764 44 38.3333 44Z" stroke="#1822B7" stroke-width="2" stroke-miterlimit="10"/>
<path d="M38.3333 44C39.9901 44 41.3333 42.6569 41.3333 41C41.3333 39.3431 39.9901 38 38.3333 38C36.6764 38 35.3333 39.3431 35.3333 41C35.3333 42.6569 36.6764 44 38.3333 44Z" stroke="url(#paint9_linear)" stroke-width="2" stroke-miterlimit="10"/>
<path d="M78.3333 57V46L76.8333 44" stroke="#1822B7" stroke-width="2" stroke-miterlimit="10" stroke-linecap="square" stroke-linejoin="round"/>
<path d="M78.3333 57V46L76.8333 44" stroke="url(#paint10_linear)" stroke-width="2" stroke-miterlimit="10" stroke-linecap="square" stroke-linejoin="round"/>
<path d="M74.3333 44C75.9901 44 77.3333 42.6569 77.3333 41C77.3333 39.3431 75.9901 38 74.3333 38C72.6764 38 71.3333 39.3431 71.3333 41C71.3333 42.6569 72.6764 44 74.3333 44Z" stroke="#1822B7" stroke-width="2" stroke-miterlimit="10"/>
<path d="M74.3333 44C75.9901 44 77.3333 42.6569 77.3333 41C77.3333 39.3431 75.9901 38 74.3333 38C72.6764 38 71.3333 39.3431 71.3333 41C71.3333 42.6569 72.6764 44 74.3333 44Z" stroke="url(#paint11_linear)" stroke-width="2" stroke-miterlimit="10"/>
<defs>
<linearGradient id="paint0_linear" x1="56.3332" y1="43" x2="56.3332" y2="53" gradientUnits="userSpaceOnUse">
<stop stop-color="#E1A352"/>
<stop offset="1" stop-color="#E3A655"/>
</linearGradient>
<linearGradient id="paint1_linear" x1="56.3332" y1="25" x2="56.3332" y2="39" gradientUnits="userSpaceOnUse">
<stop stop-color="#E1A352"/>
<stop offset="1" stop-color="#E3A655"/>
</linearGradient>
<linearGradient id="paint2_linear" x1="58.8333" y1="44" x2="58.8333" y2="53" gradientUnits="userSpaceOnUse">
<stop stop-color="#E1A352"/>
<stop offset="1" stop-color="#E3A655"/>
</linearGradient>
<linearGradient id="paint3_linear" x1="53.8332" y1="44" x2="53.8332" y2="53" gradientUnits="userSpaceOnUse">
<stop stop-color="#E1A352"/>
<stop offset="1" stop-color="#E3A655"/>
</linearGradient>
<linearGradient id="paint4_linear" x1="56.3332" y1="57" x2="56.3332" y2="69" gradientUnits="userSpaceOnUse">
<stop stop-color="#E1A352"/>
<stop offset="1" stop-color="#E3A655"/>
</linearGradient>
<linearGradient id="paint5_linear" x1="56.3332" y1="65" x2="56.3332" y2="83" gradientUnits="userSpaceOnUse">
<stop stop-color="#E1A352"/>
<stop offset="1" stop-color="#E3A655"/>
</linearGradient>
<linearGradient id="paint6_linear" x1="38.8333" y1="65" x2="38.8333" y2="87" gradientUnits="userSpaceOnUse">
<stop stop-color="#E1A352"/>
<stop offset="1" stop-color="#E3A655"/>
</linearGradient>
<linearGradient id="paint7_linear" x1="74.8333" y1="65" x2="74.8333" y2="87" gradientUnits="userSpaceOnUse">
<stop stop-color="#E1A352"/>
<stop offset="1" stop-color="#E3A655"/>
</linearGradient>
<linearGradient id="paint8_linear" x1="35.3333" y1="44" x2="35.3333" y2="57" gradientUnits="userSpaceOnUse">
<stop stop-color="#E1A352"/>
<stop offset="1" stop-color="#E3A655"/>
</linearGradient>
<linearGradient id="paint9_linear" x1="38.3333" y1="38" x2="38.3333" y2="44" gradientUnits="userSpaceOnUse">
<stop stop-color="#E1A352"/>
<stop offset="1" stop-color="#E3A655"/>
</linearGradient>
<linearGradient id="paint10_linear" x1="77.5833" y1="44" x2="77.5833" y2="57" gradientUnits="userSpaceOnUse">
<stop stop-color="#E1A352"/>
<stop offset="1" stop-color="#E3A655"/>
</linearGradient>
<linearGradient id="paint11_linear" x1="74.3333" y1="38" x2="74.3333" y2="44" gradientUnits="userSpaceOnUse">
<stop stop-color="#E1A352"/>
<stop offset="1" stop-color="#E3A655"/>
</linearGradient>
</defs>
</svg>
