<svg width="112" height="112" viewBox="0 0 112 112" fill="none" xmlns="http://www.w3.org/2000/svg">
<rect width="112" height="112" rx="56" fill="white"/>
<path d="M33 33C34.7 33 36 31.2 36 29C36 26.8 34.7 25 33 25C31.3 25 30 26.8 30 29" stroke="#1822B7" stroke-width="2" stroke-miterlimit="10" stroke-linecap="round" stroke-linejoin="round"/>
<path d="M33 33C34.7 33 36 31.2 36 29C36 26.8 34.7 25 33 25C31.3 25 30 26.8 30 29" stroke="url(#paint0_linear)" stroke-width="2" stroke-miterlimit="10" stroke-linecap="round" stroke-linejoin="round"/>
<path d="M44 33C45.7 33 47 31.2 47 29C47 26.8 45.7 25 44 25C42.3 25 41 26.8 41 29" stroke="#1822B7" stroke-width="2" stroke-miterlimit="10" stroke-linecap="round" stroke-linejoin="round"/>
<path d="M44 33C45.7 33 47 31.2 47 29C47 26.8 45.7 25 44 25C42.3 25 41 26.8 41 29" stroke="url(#paint1_linear)" stroke-width="2" stroke-miterlimit="10" stroke-linecap="round" stroke-linejoin="round"/>
<path d="M55 33C56.7 33 58 31.2 58 29C58 26.8 56.7 25 55 25C53.3 25 52 26.8 52 29" stroke="#1822B7" stroke-width="2" stroke-miterlimit="10" stroke-linecap="round" stroke-linejoin="round"/>
<path d="M55 33C56.7 33 58 31.2 58 29C58 26.8 56.7 25 55 25C53.3 25 52 26.8 52 29" stroke="url(#paint2_linear)" stroke-width="2" stroke-miterlimit="10" stroke-linecap="round" stroke-linejoin="round"/>
<path d="M66 33C67.7 33 69 31.2 69 29C69 26.8 67.7 25 66 25C64.3 25 63 26.8 63 29" stroke="#1822B7" stroke-width="2" stroke-miterlimit="10" stroke-linecap="round" stroke-linejoin="round"/>
<path d="M66 33C67.7 33 69 31.2 69 29C69 26.8 67.7 25 66 25C64.3 25 63 26.8 63 29" stroke="url(#paint3_linear)" stroke-width="2" stroke-miterlimit="10" stroke-linecap="round" stroke-linejoin="round"/>
<path d="M77 33C78.7 33 80 31.2 80 29C80 26.8 78.7 25 77 25C75.3 25 74 26.8 74 29" stroke="#1822B7" stroke-width="2" stroke-miterlimit="10" stroke-linecap="round" stroke-linejoin="round"/>
<path d="M77 33C78.7 33 80 31.2 80 29C80 26.8 78.7 25 77 25C75.3 25 74 26.8 74 29" stroke="url(#paint4_linear)" stroke-width="2" stroke-miterlimit="10" stroke-linecap="round" stroke-linejoin="round"/>
<path d="M42 29H36" stroke="#1822B7" stroke-width="2" stroke-miterlimit="10" stroke-linecap="round" stroke-linejoin="round"/>
<path d="M42 29H36" stroke="url(#paint5_linear)" stroke-width="2" stroke-miterlimit="10" stroke-linecap="round" stroke-linejoin="round"/>
<path d="M31 29H25V78H42" stroke="#1822B7" stroke-width="2" stroke-miterlimit="10" stroke-linecap="round" stroke-linejoin="round"/>
<path d="M31 29H25V78H42" stroke="url(#paint6_linear)" stroke-width="2" stroke-miterlimit="10" stroke-linecap="round" stroke-linejoin="round"/>
<path d="M53 29H47" stroke="#1822B7" stroke-width="2" stroke-miterlimit="10" stroke-linecap="round" stroke-linejoin="round"/>
<path d="M53 29H47" stroke="url(#paint7_linear)" stroke-width="2" stroke-miterlimit="10" stroke-linecap="round" stroke-linejoin="round"/>
<path d="M64 29H58" stroke="#1822B7" stroke-width="2" stroke-miterlimit="10" stroke-linecap="round" stroke-linejoin="round"/>
<path d="M64 29H58" stroke="url(#paint8_linear)" stroke-width="2" stroke-miterlimit="10" stroke-linecap="round" stroke-linejoin="round"/>
<path d="M75 29H69" stroke="#1822B7" stroke-width="2" stroke-miterlimit="10" stroke-linecap="round" stroke-linejoin="round"/>
<path d="M75 29H69" stroke="url(#paint9_linear)" stroke-width="2" stroke-miterlimit="10" stroke-linecap="round" stroke-linejoin="round"/>
<path d="M85 52V29H80" stroke="#1822B7" stroke-width="2" stroke-miterlimit="10" stroke-linecap="round" stroke-linejoin="round"/>
<path d="M85 52V29H80" stroke="url(#paint10_linear)" stroke-width="2" stroke-miterlimit="10" stroke-linecap="round" stroke-linejoin="round"/>
<path d="M32 39H78" stroke="#1822B7" stroke-width="2" stroke-miterlimit="10" stroke-linecap="square" stroke-linejoin="round"/>
<path d="M32 39H78" stroke="url(#paint11_linear)" stroke-width="2" stroke-miterlimit="10" stroke-linecap="square" stroke-linejoin="round"/>
<path d="M42 46H32V56H42V46Z" stroke="#1822B7" stroke-width="2" stroke-miterlimit="10" stroke-linecap="round" stroke-linejoin="round"/>
<path d="M42 46H32V56H42V46Z" stroke="url(#paint12_linear)" stroke-width="2" stroke-miterlimit="10" stroke-linecap="round" stroke-linejoin="round"/>
<path d="M77 60C82.5 60 87 64.5 87 70C87 75.5 82.5 80 77 80V81C77 84.3 74.3 87 71 87H56C52.7 87 50 84.3 50 81V55C50 53.9 50.9 53 52 53H75C76.1 53 77 53.9 77 55V60Z" stroke="#1822B7" stroke-width="2" stroke-miterlimit="10" stroke-linecap="square" stroke-linejoin="round"/>
<path d="M77 60C82.5 60 87 64.5 87 70C87 75.5 82.5 80 77 80V81C77 84.3 74.3 87 71 87H56C52.7 87 50 84.3 50 81V55C50 53.9 50.9 53 52 53H75C76.1 53 77 53.9 77 55V60Z" stroke="url(#paint13_linear)" stroke-width="2" stroke-miterlimit="10" stroke-linecap="square" stroke-linejoin="round"/>
<path d="M78 65.1C77.7 65 77.3 65 77 65V75C77.3 75 77.7 75 78 74.9C80.3 74.4 82 72.4 82 70C82 67.6 80.3 65.6 78 65.1Z" stroke="#1822B7" stroke-width="2" stroke-miterlimit="10" stroke-linecap="square" stroke-linejoin="round"/>
<path d="M78 65.1C77.7 65 77.3 65 77 65V75C77.3 75 77.7 75 78 74.9C80.3 74.4 82 72.4 82 70C82 67.6 80.3 65.6 78 65.1Z" stroke="url(#paint14_linear)" stroke-width="2" stroke-miterlimit="10" stroke-linecap="square" stroke-linejoin="round"/>
<path d="M56 62H65V78H56" stroke="#1822B7" stroke-width="2" stroke-miterlimit="10" stroke-linecap="square" stroke-linejoin="round"/>
<path d="M56 62H65V78H56" stroke="url(#paint15_linear)" stroke-width="2" stroke-miterlimit="10" stroke-linecap="square" stroke-linejoin="round"/>
<defs>
<linearGradient id="paint0_linear" x1="33" y1="25" x2="33" y2="33" gradientUnits="userSpaceOnUse">
<stop stop-color="#E1A352"/>
<stop offset="1" stop-color="#E3A655"/>
</linearGradient>
<linearGradient id="paint1_linear" x1="44" y1="25" x2="44" y2="33" gradientUnits="userSpaceOnUse">
<stop stop-color="#E1A352"/>
<stop offset="1" stop-color="#E3A655"/>
</linearGradient>
<linearGradient id="paint2_linear" x1="55" y1="25" x2="55" y2="33" gradientUnits="userSpaceOnUse">
<stop stop-color="#E1A352"/>
<stop offset="1" stop-color="#E3A655"/>
</linearGradient>
<linearGradient id="paint3_linear" x1="66" y1="25" x2="66" y2="33" gradientUnits="userSpaceOnUse">
<stop stop-color="#E1A352"/>
<stop offset="1" stop-color="#E3A655"/>
</linearGradient>
<linearGradient id="paint4_linear" x1="77" y1="25" x2="77" y2="33" gradientUnits="userSpaceOnUse">
<stop stop-color="#E1A352"/>
<stop offset="1" stop-color="#E3A655"/>
</linearGradient>
<linearGradient id="paint5_linear" x1="39" y1="29" x2="39" y2="30" gradientUnits="userSpaceOnUse">
<stop stop-color="#E1A352"/>
<stop offset="1" stop-color="#E3A655"/>
</linearGradient>
<linearGradient id="paint6_linear" x1="33.5" y1="29" x2="33.5" y2="78" gradientUnits="userSpaceOnUse">
<stop stop-color="#E1A352"/>
<stop offset="1" stop-color="#E3A655"/>
</linearGradient>
<linearGradient id="paint7_linear" x1="50" y1="29" x2="50" y2="30" gradientUnits="userSpaceOnUse">
<stop stop-color="#E1A352"/>
<stop offset="1" stop-color="#E3A655"/>
</linearGradient>
<linearGradient id="paint8_linear" x1="61" y1="29" x2="61" y2="30" gradientUnits="userSpaceOnUse">
<stop stop-color="#E1A352"/>
<stop offset="1" stop-color="#E3A655"/>
</linearGradient>
<linearGradient id="paint9_linear" x1="72" y1="29" x2="72" y2="30" gradientUnits="userSpaceOnUse">
<stop stop-color="#E1A352"/>
<stop offset="1" stop-color="#E3A655"/>
</linearGradient>
<linearGradient id="paint10_linear" x1="82.5" y1="29" x2="82.5" y2="52" gradientUnits="userSpaceOnUse">
<stop stop-color="#E1A352"/>
<stop offset="1" stop-color="#E3A655"/>
</linearGradient>
<linearGradient id="paint11_linear" x1="55" y1="39" x2="55" y2="40" gradientUnits="userSpaceOnUse">
<stop stop-color="#E1A352"/>
<stop offset="1" stop-color="#E3A655"/>
</linearGradient>
<linearGradient id="paint12_linear" x1="37" y1="46" x2="37" y2="56" gradientUnits="userSpaceOnUse">
<stop stop-color="#E1A352"/>
<stop offset="1" stop-color="#E3A655"/>
</linearGradient>
<linearGradient id="paint13_linear" x1="68.5" y1="53" x2="68.5" y2="87" gradientUnits="userSpaceOnUse">
<stop stop-color="#E1A352"/>
<stop offset="1" stop-color="#E3A655"/>
</linearGradient>
<linearGradient id="paint14_linear" x1="79.5" y1="65" x2="79.5" y2="75" gradientUnits="userSpaceOnUse">
<stop stop-color="#E1A352"/>
<stop offset="1" stop-color="#E3A655"/>
</linearGradient>
<linearGradient id="paint15_linear" x1="60.5" y1="62" x2="60.5" y2="78" gradientUnits="userSpaceOnUse">
<stop stop-color="#E1A352"/>
<stop offset="1" stop-color="#E3A655"/>
</linearGradient>
</defs>
</svg>
