<svg width="112" height="112" viewBox="0 0 112 112" fill="none" xmlns="http://www.w3.org/2000/svg">
<rect width="112" height="112" rx="56" fill="white"/>
<path d="M52 79C66.9117 79 79 66.9117 79 52C79 37.0883 66.9117 25 52 25C37.0883 25 25 37.0883 25 52C25 66.9117 37.0883 79 52 79Z" stroke="#1822B7" stroke-width="2" stroke-miterlimit="10" stroke-linecap="round" stroke-linejoin="round"/>
<path d="M52 79C66.9117 79 79 66.9117 79 52C79 37.0883 66.9117 25 52 25C37.0883 25 25 37.0883 25 52C25 66.9117 37.0883 79 52 79Z" stroke="url(#paint0_linear)" stroke-width="2" stroke-miterlimit="10" stroke-linecap="round" stroke-linejoin="round"/>
<path d="M77.5 64.5L84.3 71.3C87.9 74.9 87.9 80.7 84.3 84.3C80.7 87.9 74.9 87.9 71.3 84.3L64.5 77.5" stroke="#1822B7" stroke-width="2" stroke-miterlimit="10" stroke-linecap="square" stroke-linejoin="round"/>
<path d="M77.5 64.5L84.3 71.3C87.9 74.9 87.9 80.7 84.3 84.3C80.7 87.9 74.9 87.9 71.3 84.3L64.5 77.5" stroke="url(#paint1_linear)" stroke-width="2" stroke-miterlimit="10" stroke-linecap="square" stroke-linejoin="round"/>
<path d="M68 67.6L58 63" stroke="#1822B7" stroke-width="2" stroke-miterlimit="10" stroke-linecap="round" stroke-linejoin="round"/>
<path d="M68 67.6L58 63" stroke="url(#paint2_linear)" stroke-width="2" stroke-miterlimit="10" stroke-linecap="round" stroke-linejoin="round"/>
<path d="M36 67.6L46 63" stroke="#1822B7" stroke-width="2" stroke-miterlimit="10" stroke-linecap="round" stroke-linejoin="round"/>
<path d="M36 67.6L46 63" stroke="url(#paint3_linear)" stroke-width="2" stroke-miterlimit="10" stroke-linecap="round" stroke-linejoin="round"/>
<path d="M27.0001 87C27.0001 87 26.8001 79.5 29.0001 74" stroke="#1822B7" stroke-width="2" stroke-miterlimit="10" stroke-linecap="round" stroke-linejoin="round"/>
<path d="M27.0001 87C27.0001 87 26.8001 79.5 29.0001 74" stroke="url(#paint4_linear)" stroke-width="2" stroke-miterlimit="10" stroke-linecap="round" stroke-linejoin="round"/>
<path d="M62 65L63 71C56.5 69.4 54 67 54 67" stroke="#1822B7" stroke-width="2" stroke-miterlimit="10" stroke-linecap="round" stroke-linejoin="round"/>
<path d="M62 65L63 71C56.5 69.4 54 67 54 67" stroke="url(#paint5_linear)" stroke-width="2" stroke-miterlimit="10" stroke-linecap="round" stroke-linejoin="round"/>
<path d="M42 65L41 71C47.5 69.4 50 67 50 67" stroke="#1822B7" stroke-width="2" stroke-miterlimit="10" stroke-linecap="round" stroke-linejoin="round"/>
<path d="M42 65L41 71C47.5 69.4 50 67 50 67" stroke="url(#paint6_linear)" stroke-width="2" stroke-miterlimit="10" stroke-linecap="round" stroke-linejoin="round"/>
<path d="M55.6001 83C55.8001 84.7 56.0001 86.1 56.0001 87" stroke="#1822B7" stroke-width="2" stroke-miterlimit="10" stroke-linecap="round" stroke-linejoin="round"/>
<path d="M55.6001 83C55.8001 84.7 56.0001 86.1 56.0001 87" stroke="url(#paint7_linear)" stroke-width="2" stroke-miterlimit="10" stroke-linecap="round" stroke-linejoin="round"/>
<path d="M54 67C54 67 56.4 70.6 54 73C54 73 54.1 73.4 54.2 74" stroke="#1822B7" stroke-width="2" stroke-miterlimit="10" stroke-linecap="round" stroke-linejoin="round"/>
<path d="M54 67C54 67 56.4 70.6 54 73C54 73 54.1 73.4 54.2 74" stroke="url(#paint8_linear)" stroke-width="2" stroke-miterlimit="10" stroke-linecap="round" stroke-linejoin="round"/>
<path d="M49.8 74C49.9 73.4 50 73 50 73C47.6 70.6 50 67 50 67" stroke="#1822B7" stroke-width="2" stroke-miterlimit="10" stroke-linecap="round" stroke-linejoin="round"/>
<path d="M49.8 74C49.9 73.4 50 73 50 73C47.6 70.6 50 67 50 67" stroke="url(#paint9_linear)" stroke-width="2" stroke-miterlimit="10" stroke-linecap="round" stroke-linejoin="round"/>
<path d="M48 87C48 86.1 48.2 84.7 48.4 83" stroke="#1822B7" stroke-width="2" stroke-miterlimit="10" stroke-linecap="round" stroke-linejoin="round"/>
<path d="M48 87C48 86.1 48.2 84.7 48.4 83" stroke="url(#paint10_linear)" stroke-width="2" stroke-miterlimit="10" stroke-linecap="round" stroke-linejoin="round"/>
<path d="M56.0002 60C61.6002 57.6 62.3002 52.5 62.9002 47.5C63.2002 44.8 63.3002 41.9 62.0002 39.4C60.8002 37.1 58.6002 35.5 56.2002 34.7C54.9002 34.2 53.5002 34 52.0002 34C50.5002 34 49.1002 34.2 47.8002 34.7C45.4002 35.5 43.2002 37.1 42.0002 39.4C40.7002 41.9 40.8002 44.8 41.1002 47.5C41.7002 52.5 42.3002 57.6 48.0002 60" stroke="#1822B7" stroke-width="2" stroke-miterlimit="10" stroke-linecap="round" stroke-linejoin="round"/>
<path d="M56.0002 60C61.6002 57.6 62.3002 52.5 62.9002 47.5C63.2002 44.8 63.3002 41.9 62.0002 39.4C60.8002 37.1 58.6002 35.5 56.2002 34.7C54.9002 34.2 53.5002 34 52.0002 34C50.5002 34 49.1002 34.2 47.8002 34.7C45.4002 35.5 43.2002 37.1 42.0002 39.4C40.7002 41.9 40.8002 44.8 41.1002 47.5C41.7002 52.5 42.3002 57.6 48.0002 60" stroke="url(#paint11_linear)" stroke-width="2" stroke-miterlimit="10" stroke-linecap="round" stroke-linejoin="round"/>
<path d="M58.0002 59V61C58.0002 64.3 55.3002 67 52.0002 67C48.7002 67 46.0002 64.3 46.0002 61V59" stroke="#1822B7" stroke-width="2" stroke-miterlimit="10" stroke-linecap="round" stroke-linejoin="round"/>
<path d="M58.0002 59V61C58.0002 64.3 55.3002 67 52.0002 67C48.7002 67 46.0002 64.3 46.0002 61V59" stroke="url(#paint12_linear)" stroke-width="2" stroke-miterlimit="10" stroke-linecap="round" stroke-linejoin="round"/>
<defs>
<linearGradient id="paint0_linear" x1="52" y1="25" x2="52" y2="79" gradientUnits="userSpaceOnUse">
<stop stop-color="#E1A352"/>
<stop offset="1" stop-color="#E3A655"/>
</linearGradient>
<linearGradient id="paint1_linear" x1="75.75" y1="64.5" x2="75.75" y2="87" gradientUnits="userSpaceOnUse">
<stop stop-color="#E1A352"/>
<stop offset="1" stop-color="#E3A655"/>
</linearGradient>
<linearGradient id="paint2_linear" x1="63" y1="63" x2="63" y2="67.6" gradientUnits="userSpaceOnUse">
<stop stop-color="#E1A352"/>
<stop offset="1" stop-color="#E3A655"/>
</linearGradient>
<linearGradient id="paint3_linear" x1="41" y1="63" x2="41" y2="67.6" gradientUnits="userSpaceOnUse">
<stop stop-color="#E1A352"/>
<stop offset="1" stop-color="#E3A655"/>
</linearGradient>
<linearGradient id="paint4_linear" x1="27.9977" y1="74" x2="27.9977" y2="87" gradientUnits="userSpaceOnUse">
<stop stop-color="#E1A352"/>
<stop offset="1" stop-color="#E3A655"/>
</linearGradient>
<linearGradient id="paint5_linear" x1="58.5" y1="65" x2="58.5" y2="71" gradientUnits="userSpaceOnUse">
<stop stop-color="#E1A352"/>
<stop offset="1" stop-color="#E3A655"/>
</linearGradient>
<linearGradient id="paint6_linear" x1="45.5" y1="65" x2="45.5" y2="71" gradientUnits="userSpaceOnUse">
<stop stop-color="#E1A352"/>
<stop offset="1" stop-color="#E3A655"/>
</linearGradient>
<linearGradient id="paint7_linear" x1="55.8001" y1="83" x2="55.8001" y2="87" gradientUnits="userSpaceOnUse">
<stop stop-color="#E1A352"/>
<stop offset="1" stop-color="#E3A655"/>
</linearGradient>
<linearGradient id="paint8_linear" x1="54.5333" y1="67" x2="54.5333" y2="74" gradientUnits="userSpaceOnUse">
<stop stop-color="#E1A352"/>
<stop offset="1" stop-color="#E3A655"/>
</linearGradient>
<linearGradient id="paint9_linear" x1="49.4667" y1="67" x2="49.4667" y2="74" gradientUnits="userSpaceOnUse">
<stop stop-color="#E1A352"/>
<stop offset="1" stop-color="#E3A655"/>
</linearGradient>
<linearGradient id="paint10_linear" x1="48.2" y1="83" x2="48.2" y2="87" gradientUnits="userSpaceOnUse">
<stop stop-color="#E1A352"/>
<stop offset="1" stop-color="#E3A655"/>
</linearGradient>
<linearGradient id="paint11_linear" x1="52.0002" y1="34" x2="52.0002" y2="60" gradientUnits="userSpaceOnUse">
<stop stop-color="#E1A352"/>
<stop offset="1" stop-color="#E3A655"/>
</linearGradient>
<linearGradient id="paint12_linear" x1="52.0002" y1="59" x2="52.0002" y2="67" gradientUnits="userSpaceOnUse">
<stop stop-color="#E1A352"/>
<stop offset="1" stop-color="#E3A655"/>
</linearGradient>
</defs>
</svg>
