<svg width="179" height="36" viewBox="0 0 179 36" fill="none" xmlns="http://www.w3.org/2000/svg">
<path d="M29.8873 32.9965C29.8931 32.5743 30.0237 32.1633 30.2626 31.8152C30.5014 31.467 30.8379 31.1973 31.2296 31.0399C31.6214 30.8825 32.051 30.8444 32.4643 30.9305C32.8776 31.0165 33.2563 31.2229 33.5527 31.5236C33.849 31.8244 34.0498 32.206 34.1298 32.6205C34.2099 33.0351 34.1655 33.4641 34.0024 33.8535C33.8392 34.2429 33.5646 34.5754 33.213 34.8091C32.8614 35.0428 32.4485 35.1674 32.0263 35.1671C31.7433 35.165 31.4635 35.1072 31.2029 34.997C30.9422 34.8868 30.7059 34.7264 30.5072 34.5248C30.3086 34.3233 30.1516 34.0846 30.0452 33.8223C29.9389 33.5601 29.8852 33.2795 29.8873 32.9965Z" fill="white"/>
<path d="M29.8873 32.9965C29.8931 32.5743 30.0237 32.1633 30.2626 31.8152C30.5014 31.467 30.8379 31.1973 31.2296 31.0399C31.6214 30.8825 32.051 30.8444 32.4643 30.9305C32.8776 31.0165 33.2563 31.2229 33.5527 31.5236C33.849 31.8244 34.0498 32.206 34.1298 32.6205C34.2099 33.0351 34.1655 33.4641 34.0024 33.8535C33.8392 34.2429 33.5646 34.5754 33.213 34.8091C32.8614 35.0428 32.4485 35.1674 32.0263 35.1671C31.7433 35.165 31.4635 35.1072 31.2029 34.997C30.9422 34.8868 30.7059 34.7264 30.5072 34.5248C30.3086 34.3233 30.1516 34.0846 30.0452 33.8223C29.9389 33.5601 29.8852 33.2795 29.8873 32.9965Z" stroke="white" stroke-width="0.81"/>
<path d="M29.8872 27.0998C29.8869 26.6763 30.0122 26.2621 30.2473 25.9098C30.4824 25.5575 30.8167 25.2828 31.2079 25.1206C31.5992 24.9583 32.0298 24.9158 32.4452 24.9983C32.8607 25.0809 33.2423 25.2848 33.5418 25.5843C33.8413 25.8838 34.0452 26.2654 34.1277 26.6808C34.2103 27.0963 34.1677 27.5269 34.0055 27.9181C33.8433 28.3094 33.5686 28.6437 33.2163 28.8788C32.8639 29.1139 32.4498 29.2392 32.0262 29.2389C31.4591 29.2384 30.9153 29.0129 30.5142 28.6118C30.1132 28.2108 29.8877 27.667 29.8872 27.0998Z" stroke="white" stroke-width="0.81"/>
<path d="M29.8872 21.2326C29.8872 20.8091 30.0128 20.3951 30.2481 20.043C30.4834 19.691 30.8179 19.4166 31.2092 19.2546C31.6004 19.0926 32.031 19.0503 32.4463 19.1331C32.8616 19.2158 33.2431 19.4199 33.5424 19.7194C33.8417 20.019 34.0455 20.4006 34.1279 20.816C34.2103 21.2314 34.1676 21.6619 34.0053 22.053C33.843 22.4442 33.5684 22.7784 33.2161 23.0134C32.8638 23.2485 32.4497 23.3737 32.0262 23.3734C31.7452 23.3734 31.4669 23.318 31.2073 23.2104C30.9476 23.1028 30.7117 22.9451 30.5131 22.7462C30.3144 22.5474 30.1569 22.3114 30.0495 22.0517C29.9421 21.792 29.887 21.5136 29.8872 21.2326Z" fill="white"/>
<path d="M29.8872 21.2326C29.8872 20.8091 30.0128 20.3951 30.2481 20.043C30.4834 19.691 30.8179 19.4166 31.2092 19.2546C31.6004 19.0926 32.031 19.0503 32.4463 19.1331C32.8616 19.2158 33.2431 19.4199 33.5424 19.7194C33.8417 20.019 34.0455 20.4006 34.1279 20.816C34.2103 21.2314 34.1676 21.6619 34.0053 22.053C33.843 22.4442 33.5684 22.7784 33.2161 23.0134C32.8638 23.2485 32.4497 23.3737 32.0262 23.3734C31.7452 23.3734 31.4669 23.318 31.2073 23.2104C30.9476 23.1028 30.7117 22.9451 30.5131 22.7462C30.3144 22.5474 30.1569 22.3114 30.0495 22.0517C29.9421 21.792 29.887 21.5136 29.8872 21.2326V21.2326Z" stroke="white" stroke-width="0.81"/>
<path d="M29.8873 15.3359C29.8931 14.9137 30.0237 14.5027 30.2626 14.1545C30.5014 13.8064 30.8379 13.5366 31.2296 13.3792C31.6214 13.2218 32.051 13.1837 32.4643 13.2698C32.8776 13.3559 33.2563 13.5623 33.5527 13.863C33.849 14.1637 34.0498 14.5454 34.1298 14.9599C34.2099 15.3745 34.1655 15.8034 34.0024 16.1928C33.8392 16.5822 33.5646 16.9147 33.213 17.1485C32.8614 17.3822 32.4485 17.5067 32.0263 17.5064C31.7433 17.5044 31.4635 17.4466 31.2029 17.3364C30.9422 17.2262 30.7059 17.0657 30.5072 16.8642C30.3086 16.6626 30.1516 16.4239 30.0452 16.1617C29.9389 15.8995 29.8852 15.6188 29.8873 15.3359Z" stroke="white" stroke-width="0.81"/>
<path d="M29.8872 9.43917C29.8869 9.01562 30.0122 8.60147 30.2473 8.24915C30.4824 7.89683 30.8167 7.62217 31.2079 7.45992C31.5992 7.29768 32.0298 7.25513 32.4452 7.33768C32.8607 7.42023 33.2423 7.62415 33.5418 7.92365C33.8413 8.22315 34.0452 8.60477 34.1277 9.0202C34.2103 9.43564 34.1677 9.86623 34.0055 10.2575C33.8433 10.6487 33.5686 10.9831 33.2163 11.2182C32.8639 11.4533 32.4498 11.5786 32.0262 11.5782C31.4589 11.5782 30.9149 11.3529 30.5137 10.9517C30.1126 10.5506 29.8872 10.0065 29.8872 9.43917Z" stroke="white" stroke-width="0.81"/>
<path d="M29.8872 3.5737C29.8869 3.15014 30.0122 2.736 30.2473 2.38368C30.4824 2.03136 30.8167 1.7567 31.2079 1.59445C31.5992 1.4322 32.0298 1.38966 32.4452 1.4722C32.8607 1.55475 33.2423 1.75868 33.5418 2.05818C33.8413 2.35768 34.0452 2.73929 34.1277 3.15473C34.2103 3.57016 34.1677 4.00075 34.0055 4.392C33.8433 4.78325 33.5686 5.11758 33.2163 5.35268C32.8639 5.58778 32.4498 5.71308 32.0262 5.71274C31.4589 5.71274 30.9149 5.48737 30.5137 5.08623C30.1126 4.68508 29.8872 4.141 29.8872 3.5737Z" fill="white"/>
<path d="M29.8872 3.5737C29.8869 3.15014 30.0122 2.736 30.2473 2.38368C30.4824 2.03136 30.8167 1.7567 31.2079 1.59445C31.5992 1.4322 32.0298 1.38966 32.4452 1.4722C32.8607 1.55475 33.2423 1.75868 33.5418 2.05818C33.8413 2.35768 34.0452 2.73929 34.1277 3.15473C34.2103 3.57016 34.1677 4.00075 34.0055 4.392C33.8433 4.78325 33.5686 5.11758 33.2163 5.35268C32.8639 5.58778 32.4498 5.71308 32.0262 5.71274C31.4589 5.71274 30.9149 5.48737 30.5137 5.08623C30.1126 4.68508 29.8872 4.141 29.8872 3.5737V3.5737Z" stroke="white" stroke-width="0.81"/>
<path d="M23.9587 32.9965C23.9587 32.5672 24.086 32.1475 24.3245 31.7906C24.5631 31.4336 24.9021 31.1554 25.2987 30.9912C25.6953 30.8269 26.1317 30.7839 26.5528 30.8676C26.9738 30.9514 27.3606 31.1581 27.6641 31.4617C27.9677 31.7652 28.1744 32.152 28.2582 32.573C28.3419 32.9941 28.2989 33.4305 28.1347 33.8271C27.9704 34.2238 27.6922 34.5628 27.3352 34.8013C26.9783 35.0398 26.5586 35.1671 26.1293 35.1671C25.5536 35.1671 25.0015 34.9384 24.5945 34.5313C24.1874 34.1243 23.9587 33.5722 23.9587 32.9965Z" fill="white"/>
<path d="M23.9587 32.9965C23.9587 32.5672 24.086 32.1475 24.3245 31.7906C24.5631 31.4336 24.9021 31.1554 25.2987 30.9912C25.6953 30.8269 26.1317 30.7839 26.5528 30.8676C26.9738 30.9514 27.3606 31.1581 27.6641 31.4617C27.9677 31.7652 28.1744 32.152 28.2582 32.573C28.3419 32.9941 28.2989 33.4305 28.1347 33.8271C27.9704 34.2238 27.6922 34.5628 27.3352 34.8013C26.9783 35.0398 26.5586 35.1671 26.1293 35.1671C25.5536 35.1671 25.0015 34.9384 24.5945 34.5313C24.1874 34.1243 23.9587 33.5722 23.9587 32.9965V32.9965Z" stroke="white" stroke-width="0.81"/>
<path d="M23.9587 27.0998C23.9525 26.6692 24.0744 26.2465 24.3091 25.8854C24.5438 25.5244 24.8805 25.2413 25.2766 25.0721C25.6726 24.903 26.11 24.8555 26.5331 24.9356C26.9562 25.0158 27.3459 25.22 27.6526 25.5223C27.9593 25.8245 28.1692 26.2112 28.2556 26.6331C28.3419 27.055 28.3008 27.493 28.1375 27.8915C27.9742 28.2899 27.696 28.6308 27.3384 28.8707C26.9808 29.1107 26.5599 29.2388 26.1293 29.2389C25.5579 29.2426 25.0085 29.0194 24.6015 28.6184C24.1945 28.2173 23.9634 27.6712 23.9587 27.0998V27.0998Z" stroke="white" stroke-width="0.81"/>
<path d="M23.9587 21.2328C23.9528 20.8023 24.0751 20.3798 24.3099 20.0189C24.5448 19.6581 24.8817 19.3752 25.2778 19.2064C25.6739 19.0375 26.1112 18.9903 26.5342 19.0706C26.9572 19.151 27.3467 19.3553 27.6533 19.6577C27.9598 19.96 28.1695 20.3467 28.2557 20.7685C28.3419 21.1904 28.3007 21.6283 28.1373 22.0267C27.9739 22.425 27.6958 22.7658 27.3382 23.0056C26.9807 23.2455 26.5598 23.3736 26.1293 23.3736C25.8462 23.3757 25.5654 23.322 25.3031 23.2155C25.0407 23.109 24.8019 22.9518 24.6003 22.753C24.3988 22.5542 24.2383 22.3176 24.1282 22.0568C24.0181 21.7959 23.9605 21.5159 23.9587 21.2328Z" fill="white"/>
<path d="M23.9587 21.2328C23.9528 20.8023 24.0751 20.3798 24.3099 20.0189C24.5448 19.6581 24.8817 19.3752 25.2778 19.2064C25.6739 19.0375 26.1112 18.9903 26.5342 19.0706C26.9572 19.151 27.3467 19.3553 27.6533 19.6577C27.9598 19.96 28.1695 20.3467 28.2557 20.7685C28.3419 21.1904 28.3007 21.6283 28.1373 22.0267C27.9739 22.425 27.6958 22.7658 27.3382 23.0056C26.9807 23.2455 26.5598 23.3736 26.1293 23.3736C25.8462 23.3757 25.5654 23.322 25.3031 23.2155C25.0407 23.109 24.8019 22.9518 24.6003 22.753C24.3988 22.5542 24.2383 22.3176 24.1282 22.0568C24.0181 21.7959 23.9605 21.5159 23.9587 21.2328Z" stroke="white" stroke-width="0.81"/>
<path d="M23.9587 15.3359C23.9587 14.9066 24.086 14.4869 24.3245 14.13C24.5631 13.773 24.9021 13.4948 25.2987 13.3305C25.6953 13.1662 26.1317 13.1232 26.5528 13.207C26.9738 13.2907 27.3606 13.4975 27.6641 13.801C27.9677 14.1046 28.1744 14.4913 28.2582 14.9124C28.3419 15.3334 28.2989 15.7699 28.1347 16.1665C27.9704 16.5631 27.6922 16.9021 27.3352 17.1406C26.9783 17.3791 26.5586 17.5064 26.1293 17.5064C25.5536 17.5064 25.0015 17.2777 24.5945 16.8707C24.1874 16.4636 23.9587 15.9115 23.9587 15.3359Z" fill="white"/>
<path d="M23.9587 15.3359C23.9587 14.9066 24.086 14.4869 24.3245 14.13C24.5631 13.773 24.9021 13.4948 25.2987 13.3305C25.6953 13.1662 26.1317 13.1232 26.5528 13.207C26.9738 13.2907 27.3606 13.4975 27.6641 13.801C27.9677 14.1046 28.1744 14.4913 28.2582 14.9124C28.3419 15.3334 28.2989 15.7699 28.1347 16.1665C27.9704 16.5631 27.6922 16.9021 27.3352 17.1406C26.9783 17.3791 26.5586 17.5064 26.1293 17.5064C25.5536 17.5064 25.0015 17.2777 24.5945 16.8707C24.1874 16.4636 23.9587 15.9115 23.9587 15.3359V15.3359Z" stroke="white" stroke-width="0.81"/>
<path d="M23.9587 9.43917C23.9525 9.00858 24.0744 8.58587 24.3091 8.22479C24.5438 7.86372 24.8805 7.58061 25.2766 7.41148C25.6726 7.24235 26.11 7.19484 26.5331 7.275C26.9562 7.35515 27.3459 7.55935 27.6526 7.86162C27.9593 8.16389 28.1692 8.55056 28.2556 8.97244C28.3419 9.39433 28.3008 9.83237 28.1375 10.2308C27.9742 10.6293 27.696 10.9702 27.3384 11.2101C26.9808 11.45 26.5599 11.5782 26.1293 11.5782C25.8463 11.5803 25.5657 11.5266 25.3035 11.4202C25.0413 11.3139 24.8025 11.1569 24.601 10.9582C24.3994 10.7596 24.239 10.5232 24.1288 10.2626C24.0186 10.0019 23.9608 9.72214 23.9587 9.43917Z" fill="white"/>
<path d="M23.9587 9.43917C23.9525 9.00858 24.0744 8.58587 24.3091 8.22479C24.5438 7.86372 24.8805 7.58061 25.2766 7.41148C25.6726 7.24235 26.11 7.19484 26.5331 7.275C26.9562 7.35515 27.3459 7.55935 27.6526 7.86162C27.9593 8.16389 28.1692 8.55056 28.2556 8.97244C28.3419 9.39433 28.3008 9.83237 28.1375 10.2308C27.9742 10.6293 27.696 10.9702 27.3384 11.2101C26.9808 11.45 26.5599 11.5782 26.1293 11.5782C25.8463 11.5803 25.5657 11.5266 25.3035 11.4202C25.0413 11.3139 24.8025 11.1569 24.601 10.9582C24.3994 10.7596 24.239 10.5232 24.1288 10.2626C24.0186 10.0019 23.9608 9.72214 23.9587 9.43917Z" stroke="white" stroke-width="0.81"/>
<path d="M23.9587 3.57393C23.9525 3.14335 24.0744 2.72063 24.3091 2.35956C24.5438 1.99848 24.8805 1.71538 25.2766 1.54624C25.6726 1.37711 26.11 1.3296 26.5331 1.40976C26.9562 1.48992 27.3459 1.69412 27.6526 1.99639C27.9593 2.29865 28.1692 2.68532 28.2556 3.10721C28.3419 3.5291 28.3008 3.96713 28.1375 4.36559C27.9742 4.76406 27.696 5.10493 27.3384 5.34486C26.9808 5.58479 26.5599 5.71293 26.1293 5.71297C25.8463 5.71505 25.5657 5.66137 25.3035 5.555C25.0413 5.44862 24.8025 5.29164 24.601 5.09301C24.3994 4.89438 24.239 4.658 24.1288 4.39735C24.0186 4.13671 23.9608 3.85691 23.9587 3.57393Z" fill="white"/>
<path d="M23.9587 3.57393C23.9525 3.14335 24.0744 2.72063 24.3091 2.35956C24.5438 1.99848 24.8805 1.71538 25.2766 1.54624C25.6726 1.37711 26.11 1.3296 26.5331 1.40976C26.9562 1.48992 27.3459 1.69412 27.6526 1.99639C27.9593 2.29865 28.1692 2.68532 28.2556 3.10721C28.3419 3.5291 28.3008 3.96713 28.1375 4.36559C27.9742 4.76406 27.696 5.10493 27.3384 5.34486C26.9808 5.58479 26.5599 5.71293 26.1293 5.71297C25.8463 5.71505 25.5657 5.66137 25.3035 5.555C25.0413 5.44862 24.8025 5.29164 24.601 5.09301C24.3994 4.89438 24.239 4.658 24.1288 4.39735C24.0186 4.13671 23.9608 3.85691 23.9587 3.57393V3.57393Z" stroke="white" stroke-width="0.81"/>
<path d="M18.0935 32.9965C18.0994 32.574 18.2301 32.1628 18.4693 31.8145C18.7085 31.4662 19.0453 31.1964 19.4375 31.0392C19.8297 30.882 20.2596 30.8444 20.6731 30.931C21.0866 31.0176 21.4653 31.2247 21.7613 31.5261C22.0574 31.8276 22.2577 32.2098 22.3369 32.6249C22.4161 33.0399 22.3708 33.469 22.2066 33.8583C22.0424 34.2476 21.7666 34.5796 21.4141 34.8125C21.0616 35.0454 20.648 35.1688 20.2255 35.1671C19.9425 35.165 19.6628 35.1072 19.4021 34.997C19.1415 34.8868 18.9051 34.7264 18.7064 34.5248C18.5078 34.3232 18.3508 34.0845 18.2445 33.8223C18.1381 33.5601 18.0844 33.2795 18.0865 32.9965" fill="white"/>
<path d="M18.0936 32.9965C18.0994 32.574 18.2302 32.1628 18.4694 31.8145C18.7085 31.4662 19.0454 31.1964 19.4376 31.0392C19.8297 30.882 20.2597 30.8444 20.6732 30.931C21.0867 31.0176 21.4653 31.2247 21.7614 31.5261C22.0575 31.8276 22.2577 32.2098 22.337 32.6249C22.4162 33.0399 22.3708 33.469 22.2066 33.8583C22.0424 34.2476 21.7667 34.5796 21.4142 34.8125C21.0616 35.0454 20.6481 35.1688 20.2256 35.1671C19.6553 35.1611 19.1107 34.9292 18.711 34.5223C18.3114 34.1155 18.0894 33.5668 18.0936 32.9965V32.9965Z" stroke="white" stroke-width="0.81"/>
<path d="M18.0934 27.0998C18.0931 26.6759 18.2186 26.2615 18.454 25.9091C18.6894 25.5566 19.0241 25.2819 19.4158 25.1199C19.8075 24.9579 20.2384 24.9157 20.654 24.9988C21.0697 25.082 21.4513 25.2866 21.7505 25.5868C22.0497 25.887 22.2531 26.2693 22.3348 26.6852C22.4166 27.101 22.373 27.5319 22.2097 27.923C22.0464 28.3141 21.7706 28.6479 21.4174 28.8822C21.0641 29.1165 20.6493 29.2406 20.2255 29.2388C19.6583 29.2384 19.1145 29.0129 18.7135 28.6118C18.3124 28.2108 18.0869 27.667 18.0864 27.0998" fill="white"/>
<path d="M18.0935 27.0998C18.0932 26.6759 18.2186 26.2615 18.4541 25.9091C18.6895 25.5566 19.0242 25.2819 19.4159 25.1199C19.8075 24.9579 20.2385 24.9157 20.6541 24.9988C21.0697 25.082 21.4513 25.2866 21.7505 25.5868C22.0498 25.887 22.2531 26.2693 22.3349 26.6852C22.4166 27.101 22.3731 27.5319 22.2098 27.923C22.0464 28.3141 21.7707 28.6479 21.4175 28.8822C21.0642 29.1165 20.6494 29.2406 20.2255 29.2388C19.6596 29.2365 19.1176 29.0102 18.718 28.6094C18.3185 28.2085 18.094 27.6658 18.0935 27.0998V27.0998Z" stroke="white" stroke-width="0.81"/>
<path d="M18.0935 21.2328C18.0935 20.809 18.2193 20.3948 18.4549 20.0426C18.6905 19.6903 19.0254 19.4159 19.4171 19.2542C19.8088 19.0924 20.2397 19.0505 20.6552 19.1338C21.0707 19.2171 21.4521 19.4219 21.7512 19.7222C22.0502 20.0224 22.2534 20.4047 22.335 20.8206C22.4166 21.2364 22.373 21.6671 22.2096 22.0581C22.0462 22.4492 21.7705 22.7829 21.4173 23.0171C21.0641 23.2513 20.6493 23.3753 20.2255 23.3736C19.6591 23.3718 19.1166 23.1453 18.7169 22.744C18.3172 22.3427 18.093 21.7992 18.0935 21.2328V21.2328Z" stroke="white" stroke-width="0.81"/>
<path d="M20.2255 17.5766C19.7811 17.5825 19.345 17.4561 18.9727 17.2135C18.6003 16.9709 18.3085 16.6231 18.1343 16.2142C17.9601 15.8053 17.9115 15.3539 17.9946 14.9173C18.0776 14.4807 18.2886 14.0787 18.6008 13.7624C18.9129 13.446 19.3121 13.2296 19.7475 13.1407C20.183 13.0518 20.635 13.0944 21.0462 13.2631C21.4573 13.4318 21.809 13.7189 22.0566 14.088C22.3041 14.4571 22.4363 14.8915 22.4364 15.3359C22.4385 15.6282 22.3829 15.9181 22.2729 16.1889C22.1629 16.4598 22.0006 16.7063 21.7953 16.9144C21.5899 17.1225 21.3456 17.2881 21.0763 17.4017C20.8069 17.5153 20.5178 17.5747 20.2255 17.5766Z" fill="white"/>
<path d="M20.2255 11.65C19.7882 11.65 19.3608 11.5203 18.9972 11.2774C18.6337 11.0345 18.3503 10.6892 18.1829 10.2852C18.0156 9.88122 17.9718 9.43669 18.0571 9.00782C18.1424 8.57895 18.353 8.18502 18.6622 7.87582C18.9714 7.56663 19.3653 7.35606 19.7942 7.27075C20.2231 7.18545 20.6676 7.22923 21.0716 7.39657C21.4756 7.5639 21.8209 7.84727 22.0638 8.21085C22.3067 8.57442 22.4364 9.00187 22.4364 9.43914C22.4364 10.0255 22.2035 10.5878 21.7888 11.0025C21.3742 11.4171 20.8119 11.65 20.2255 11.65Z" fill="white"/>
<path d="M20.2255 5.78648C19.7882 5.78648 19.3607 5.65677 18.997 5.41376C18.6334 5.17075 18.3501 4.82536 18.1828 4.42127C18.0155 4.01718 17.9718 3.57256 18.0573 3.14365C18.1427 2.71474 18.3534 2.3208 18.6628 2.01167C18.9722 1.70255 19.3663 1.49212 19.7953 1.40702C20.2243 1.32191 20.6688 1.36594 21.0728 1.53354C21.4767 1.70115 21.8219 1.98479 22.0646 2.3486C22.3074 2.7124 22.4367 3.14002 22.4364 3.57737C22.4364 3.86762 22.3792 4.15503 22.2681 4.42316C22.1569 4.6913 21.994 4.93491 21.7887 5.14006C21.5834 5.34522 21.3397 5.50791 21.0714 5.61882C20.8032 5.72974 20.5158 5.78671 20.2255 5.78648Z" fill="white"/>
<path d="M12.2283 32.9967C12.2345 32.575 12.3653 32.1646 12.6041 31.817C12.8428 31.4694 13.179 31.2002 13.5704 31.0431C13.9618 30.886 14.3908 30.8481 14.8037 30.9342C15.2165 31.0202 15.5947 31.2264 15.8907 31.5268C16.1867 31.8271 16.3873 32.2083 16.4673 32.6224C16.5473 33.0364 16.5032 33.4649 16.3404 33.8539C16.1776 34.2429 15.9035 34.5751 15.5524 34.8088C15.2014 35.0425 14.7891 35.1672 14.3674 35.1672C14.0844 35.1652 13.8046 35.1074 13.5439 34.9972C13.2833 34.887 13.0469 34.7265 12.8483 34.525C12.6497 34.3234 12.4927 34.0847 12.3863 33.8225C12.2799 33.5603 12.2263 33.2796 12.2283 32.9967V32.9967Z" stroke="white" stroke-width="0.81"/>
<path d="M14.3672 29.3089C13.9297 29.3093 13.5021 29.1799 13.1382 28.9371C12.7744 28.6943 12.4907 28.349 12.3232 27.9449C12.1556 27.5409 12.1117 27.0962 12.1969 26.6672C12.2822 26.2382 12.4928 25.8441 12.8021 25.5348C13.1114 25.2255 13.5055 25.0149 13.9345 24.9296C14.3635 24.8444 14.8082 24.8883 15.2123 25.0558C15.6163 25.2234 15.9616 25.507 16.2044 25.8709C16.4472 26.2347 16.5766 26.6624 16.5763 27.0998C16.5763 27.3899 16.5191 27.6772 16.4081 27.9452C16.2971 28.2132 16.1344 28.4568 15.9292 28.6619C15.7241 28.867 15.4806 29.0298 15.2125 29.1408C14.9445 29.2518 14.6573 29.3089 14.3672 29.3089Z" fill="white"/>
<path d="M14.3672 23.4437C13.9298 23.4441 13.5022 23.3147 13.1384 23.072C12.7746 22.8292 12.4909 22.4841 12.3233 22.0801C12.1557 21.6762 12.1117 21.2316 12.1968 20.8026C12.2819 20.3736 12.4923 19.9795 12.8015 19.6701C13.1106 19.3608 13.5045 19.15 13.9334 19.0646C14.3624 18.9791 14.807 19.0228 15.2111 19.1901C15.6152 19.3574 15.9605 19.6408 16.2036 20.0044C16.4466 20.368 16.5763 20.7955 16.5763 21.2328C16.5763 21.8189 16.3436 22.381 15.9293 22.7955C15.5151 23.2101 14.9532 23.4432 14.3672 23.4437Z" fill="white"/>
<path d="M12.2283 15.336C12.2345 14.9144 12.3653 14.5039 12.6041 14.1563C12.8428 13.8088 13.179 13.5395 13.5704 13.3824C13.9618 13.2254 14.3908 13.1875 14.8037 13.2735C15.2165 13.3596 15.5947 13.5658 15.8907 13.8661C16.1867 14.1665 16.3873 14.5477 16.4673 14.9617C16.5473 15.3758 16.5032 15.8042 16.3404 16.1932C16.1776 16.5823 15.9035 16.9145 15.5524 17.1482C15.2014 17.3819 14.7891 17.5065 14.3674 17.5066C14.0844 17.5045 13.8046 17.4468 13.5439 17.3366C13.2833 17.2264 13.0469 17.0659 12.8483 16.8643C12.6497 16.6628 12.4927 16.4241 12.3863 16.1618C12.2799 15.8996 12.2263 15.619 12.2283 15.336Z" fill="white"/>
<path d="M14.3673 17.5064C15.5487 17.5064 16.5064 16.5346 16.5064 15.3359C16.5064 14.1371 15.5487 13.1653 14.3673 13.1653C13.186 13.1653 12.2283 14.1371 12.2283 15.3359C12.2283 16.5346 13.186 17.5064 14.3673 17.5064Z" stroke="white" stroke-width="0.81"/>
<path d="M12.2283 9.43909C12.2283 9.01603 12.3537 8.60247 12.5888 8.2507C12.8238 7.89894 13.1579 7.62477 13.5487 7.46287C13.9396 7.30098 14.3697 7.25862 14.7846 7.34115C15.1995 7.42369 15.5807 7.62741 15.8798 7.92656C16.179 8.22571 16.3827 8.60685 16.4652 9.02178C16.5478 9.43672 16.5054 9.86681 16.3435 10.2577C16.1816 10.6485 15.9075 10.9826 15.5557 11.2176C15.2039 11.4527 14.7904 11.5781 14.3673 11.5781C13.8 11.5781 13.2559 11.3528 12.8548 10.9516C12.4536 10.5505 12.2283 10.0064 12.2283 9.43909Z" fill="white"/>
<path d="M16.4485 9.92993C16.7199 8.78016 16.0078 7.6281 14.858 7.35673C13.7082 7.08536 12.5562 7.79745 12.2848 8.94721C12.0134 10.097 12.7255 11.249 13.8753 11.5204C15.0251 11.7918 16.1771 11.0797 16.4485 9.92993Z" stroke="white" stroke-width="0.81"/>
<path d="M14.3672 5.78648C13.9297 5.78683 13.5021 5.65741 13.1382 5.41461C12.7744 5.17181 12.4907 4.82654 12.3232 4.42248C12.1556 4.01843 12.1117 3.57375 12.1969 3.14472C12.2822 2.7157 12.4928 2.3216 12.8021 2.01229C13.1114 1.70299 13.5055 1.49239 13.9345 1.40714C14.3635 1.32189 14.8082 1.36582 15.2123 1.53337C15.6163 1.70093 15.9616 1.98457 16.2044 2.34841C16.4472 2.71226 16.5766 3.13995 16.5763 3.57736C16.5763 3.86747 16.5191 4.15473 16.4081 4.42276C16.2971 4.69078 16.1344 4.93431 15.9292 5.13944C15.7241 5.34458 15.4806 5.5073 15.2125 5.61832C14.9445 5.72934 14.6573 5.78648 14.3672 5.78648Z" fill="white"/>
<path d="M6.2998 32.9965C6.2998 32.5672 6.42711 32.1475 6.66561 31.7906C6.90412 31.4336 7.24311 31.1554 7.63974 30.9912C8.03636 30.8269 8.47279 30.7839 8.89384 30.8676C9.31489 30.9514 9.70164 31.1581 10.0052 31.4617C10.3088 31.7652 10.5155 32.152 10.5992 32.573C10.683 32.9941 10.64 33.4305 10.4757 33.8271C10.3114 34.2238 10.0332 34.5628 9.67628 34.8013C9.31933 35.0398 8.89968 35.1671 8.47038 35.1671C7.89471 35.1671 7.34261 34.9384 6.93555 34.5313C6.52849 34.1243 6.2998 33.5722 6.2998 32.9965Z" fill="white"/>
<path d="M6.2998 32.9965C6.2998 32.5672 6.42711 32.1475 6.66561 31.7906C6.90412 31.4336 7.24311 31.1554 7.63974 30.9912C8.03636 30.8269 8.47279 30.7839 8.89384 30.8676C9.31489 30.9514 9.70164 31.1581 10.0052 31.4617C10.3088 31.7652 10.5155 32.152 10.5992 32.573C10.683 32.9941 10.64 33.4305 10.4757 33.8271C10.3114 34.2238 10.0332 34.5628 9.67628 34.8013C9.31933 35.0398 8.89968 35.1671 8.47038 35.1671C7.89471 35.1671 7.34261 34.9384 6.93555 34.5313C6.52849 34.1243 6.2998 33.5722 6.2998 32.9965V32.9965Z" stroke="white" stroke-width="0.81"/>
<path d="M6.29979 27.0998C6.29353 26.6692 6.4155 26.2465 6.65017 25.8854C6.88484 25.5244 7.22161 25.2413 7.61764 25.0721C8.01367 24.903 8.45105 24.8555 8.87416 24.9356C9.29727 25.0158 9.68697 25.22 9.99369 25.5223C10.3004 25.8245 10.5103 26.2112 10.5966 26.6331C10.683 27.055 10.6419 27.493 10.4786 27.8915C10.3152 28.2899 10.0371 28.6308 9.67948 28.8707C9.32188 29.1107 8.90099 29.2388 8.47036 29.2389C7.89901 29.2426 7.34952 29.0194 6.94256 28.6184C6.53559 28.2173 6.30442 27.6712 6.29979 27.0998Z" fill="white"/>
<path d="M8.47038 29.2388C9.66915 29.2388 10.641 28.2811 10.641 27.0997C10.641 25.9184 9.66915 24.9607 8.47038 24.9607C7.2716 24.9607 6.2998 25.9184 6.2998 27.0997C6.2998 28.2811 7.2716 29.2388 8.47038 29.2388Z" stroke="white" stroke-width="0.81"/>
<path d="M6.30001 21.2328C6.2941 20.8023 6.41636 20.3798 6.65125 20.0189C6.88614 19.6581 7.22303 19.3752 7.6191 19.2064C8.01516 19.0375 8.45249 18.9903 8.87549 19.0706C9.29848 19.151 9.68802 19.3553 9.99457 19.6577C10.3011 19.96 10.5108 20.3467 10.597 20.7685C10.6832 21.1904 10.642 21.6283 10.4786 22.0267C10.3152 22.425 10.0371 22.7658 9.67953 23.0056C9.32196 23.2455 8.90114 23.3736 8.47058 23.3736C8.18746 23.3757 7.9067 23.322 7.64436 23.2155C7.38202 23.109 7.14323 22.9518 6.94165 22.753C6.74007 22.5542 6.57965 22.3176 6.46955 22.0568C6.35945 21.7959 6.30184 21.5159 6.30001 21.2328V21.2328Z" stroke="white" stroke-width="0.81"/>
<path d="M6.2998 15.3359C6.2998 14.9066 6.42711 14.4869 6.66561 14.13C6.90412 13.773 7.24311 13.4948 7.63974 13.3305C8.03636 13.1662 8.47279 13.1232 8.89384 13.207C9.31489 13.2907 9.70164 13.4975 10.0052 13.801C10.3088 14.1046 10.5155 14.4913 10.5992 14.9124C10.683 15.3334 10.64 15.7699 10.4757 16.1665C10.3114 16.5631 10.0332 16.9021 9.67628 17.1406C9.31933 17.3791 8.89968 17.5064 8.47038 17.5064C7.89471 17.5064 7.34261 17.2777 6.93555 16.8707C6.52849 16.4636 6.2998 15.9115 6.2998 15.3359Z" fill="white"/>
<path d="M8.47038 17.5064C9.66915 17.5064 10.641 16.5346 10.641 15.3359C10.641 14.1371 9.66915 13.1653 8.47038 13.1653C7.2716 13.1653 6.2998 14.1371 6.2998 15.3359C6.2998 16.5346 7.2716 17.5064 8.47038 17.5064Z" stroke="white" stroke-width="0.81"/>
<path d="M6.29979 9.43917C6.29353 9.00858 6.4155 8.58587 6.65017 8.22479C6.88484 7.86372 7.22161 7.58061 7.61764 7.41148C8.01367 7.24235 8.45105 7.19484 8.87416 7.275C9.29727 7.35515 9.68697 7.55935 9.99369 7.86162C10.3004 8.16389 10.5103 8.55056 10.5966 8.97244C10.683 9.39433 10.6419 9.83237 10.4786 10.2308C10.3152 10.6293 10.0371 10.9702 9.67948 11.2101C9.32188 11.45 8.90099 11.5782 8.47036 11.5782C8.18739 11.5803 7.90677 11.5266 7.64455 11.4202C7.38232 11.3139 7.14361 11.1569 6.94205 10.9582C6.74049 10.7596 6.58003 10.5232 6.46983 10.2626C6.35963 10.0019 6.30185 9.72214 6.29979 9.43917Z" fill="white"/>
<path d="M8.47038 11.5781C9.66915 11.5781 10.641 10.6204 10.641 9.43909C10.641 8.25773 9.66915 7.30005 8.47038 7.30005C7.2716 7.30005 6.2998 8.25773 6.2998 9.43909C6.2998 10.6204 7.2716 11.5781 8.47038 11.5781Z" stroke="white" stroke-width="0.81"/>
<path d="M8.47038 5.71289C9.66915 5.71289 10.641 4.75521 10.641 3.57385C10.641 2.39249 9.66915 1.43481 8.47038 1.43481C7.2716 1.43481 6.2998 2.39249 6.2998 3.57385C6.2998 4.75521 7.2716 5.71289 8.47038 5.71289Z" stroke="white" stroke-width="0.81"/>
<path d="M0.429501 32.9967C0.435718 32.575 0.566435 32.1646 0.805223 31.817C1.04401 31.4694 1.38022 31.2002 1.77158 31.0431C2.16295 30.886 2.59201 30.8481 3.00484 30.9342C3.41768 31.0202 3.79586 31.2264 4.09186 31.5268C4.38787 31.8271 4.58848 32.2083 4.66849 32.6224C4.74851 33.0364 4.70434 33.4649 4.54156 33.8539C4.37878 34.2429 4.10463 34.5751 3.75359 34.8088C3.40254 35.0425 2.99025 35.1672 2.56854 35.1672C2.28557 35.1652 2.00577 35.1074 1.74512 34.9972C1.48448 34.887 1.24809 34.7265 1.04946 34.525C0.850834 34.3234 0.69385 34.0847 0.587477 33.8225C0.481103 33.5603 0.427423 33.2796 0.429501 32.9967Z" fill="white"/>
<path d="M0.429501 32.9967C0.435718 32.575 0.566435 32.1646 0.805223 31.817C1.04401 31.4694 1.38022 31.2002 1.77158 31.0431C2.16295 30.886 2.59201 30.8481 3.00484 30.9342C3.41768 31.0202 3.79586 31.2264 4.09186 31.5268C4.38787 31.8271 4.58848 32.2083 4.66849 32.6224C4.74851 33.0364 4.70434 33.4649 4.54156 33.8539C4.37878 34.2429 4.10463 34.5751 3.75359 34.8088C3.40254 35.0425 2.99025 35.1672 2.56854 35.1672C2.28557 35.1652 2.00577 35.1074 1.74512 34.9972C1.48448 34.887 1.24809 34.7265 1.04946 34.525C0.850834 34.3234 0.69385 34.0847 0.587477 33.8225C0.481103 33.5603 0.427423 33.2796 0.429501 32.9967V32.9967Z" stroke="white" stroke-width="0.81"/>
<path d="M0.429443 27.0997C0.429443 26.6767 0.554896 26.2631 0.789936 25.9113C1.02498 25.5596 1.35905 25.2854 1.74991 25.1235C2.14077 24.9616 2.57086 24.9193 2.98579 25.0018C3.40072 25.0843 3.78186 25.2881 4.08101 25.5872C4.38016 25.8864 4.58389 26.2675 4.66642 26.6824C4.74896 27.0974 4.7066 27.5274 4.5447 27.9183C4.3828 28.3092 4.10863 28.6432 3.75687 28.8783C3.40511 29.1133 2.99154 29.2388 2.56848 29.2388C2.28758 29.2388 2.00943 29.1834 1.74991 29.0759C1.49039 28.9685 1.25458 28.8109 1.05595 28.6123C0.857325 28.4136 0.699764 28.1778 0.592268 27.9183C0.484771 27.6588 0.429443 27.3806 0.429443 27.0997Z" fill="white"/>
<path d="M2.57361 29.2388C3.75497 29.2388 4.71265 28.2811 4.71265 27.0997C4.71265 25.9184 3.75497 24.9607 2.57361 24.9607C1.39225 24.9607 0.43457 25.9184 0.43457 27.0997C0.43457 28.2811 1.39225 29.2388 2.57361 29.2388Z" stroke="white" stroke-width="0.81"/>
<path d="M0.429444 21.2327C0.429791 20.8098 0.555537 20.3964 0.790788 20.0448C1.02604 19.6933 1.36023 19.4194 1.75112 19.2578C2.14201 19.0962 2.57204 19.054 2.98686 19.1368C3.40168 19.2195 3.78266 19.4234 4.08163 19.7226C4.38061 20.0218 4.58416 20.403 4.66655 20.8178C4.74894 21.2327 4.70648 21.6627 4.54453 22.0535C4.38258 22.4442 4.10841 22.7782 3.75669 23.0132C3.40496 23.2481 2.99147 23.3735 2.56848 23.3735C2.28743 23.3735 2.00914 23.3182 1.7495 23.2105C1.48987 23.1029 1.25398 22.9452 1.05533 22.7464C0.856683 22.5476 0.699159 22.3116 0.591766 22.0519C0.484372 21.7921 0.429214 21.5138 0.429444 21.2327Z" fill="white"/>
<path d="M0.429444 21.2327C0.429791 20.8098 0.555537 20.3964 0.790788 20.0448C1.02604 19.6933 1.36023 19.4194 1.75112 19.2578C2.14201 19.0962 2.57204 19.054 2.98686 19.1368C3.40168 19.2195 3.78266 19.4234 4.08163 19.7226C4.38061 20.0218 4.58415 20.403 4.66655 20.8178C4.74894 21.2327 4.70648 21.6627 4.54453 22.0535C4.38258 22.4442 4.10841 22.7782 3.75669 23.0132C3.40496 23.2481 2.99147 23.3735 2.56848 23.3735C2.28743 23.3735 2.00914 23.3182 1.7495 23.2105C1.48987 23.1029 1.25398 22.9452 1.05533 22.7464C0.856683 22.5476 0.699159 22.3116 0.591766 22.0519C0.484372 21.7921 0.429214 21.5138 0.429444 21.2327V21.2327Z" stroke="white" stroke-width="0.81"/>
<path d="M2.57361 17.5064C3.75497 17.5064 4.71265 16.5346 4.71265 15.3359C4.71265 14.1371 3.75497 13.1653 2.57361 13.1653C1.39225 13.1653 0.43457 14.1371 0.43457 15.3359C0.43457 16.5346 1.39225 17.5064 2.57361 17.5064Z" stroke="white" stroke-width="0.81"/>
<path d="M0.429443 9.43909C0.429443 9.01603 0.554896 8.60247 0.789936 8.2507C1.02498 7.89894 1.35905 7.62477 1.74991 7.46287C2.14077 7.30098 2.57086 7.25862 2.98579 7.34115C3.40072 7.42369 3.78186 7.62741 4.08101 7.92656C4.38016 8.22571 4.58389 8.60685 4.66642 9.02178C4.74896 9.43672 4.7066 9.86681 4.5447 10.2577C4.3828 10.6485 4.10863 10.9826 3.75687 11.2176C3.40511 11.4527 2.99154 11.5781 2.56848 11.5781C2.28758 11.5781 2.00943 11.5228 1.74991 11.4153C1.49039 11.3078 1.25458 11.1502 1.05595 10.9516C0.857325 10.753 0.699764 10.5172 0.592268 10.2577C0.484771 9.99814 0.429443 9.71999 0.429443 9.43909Z" fill="white"/>
<path d="M2.57361 11.5781C3.75497 11.5781 4.71265 10.6204 4.71265 9.43909C4.71265 8.25773 3.75497 7.30005 2.57361 7.30005C1.39225 7.30005 0.43457 8.25773 0.43457 9.43909C0.43457 10.6204 1.39225 11.5781 2.57361 11.5781Z" stroke="white" stroke-width="0.81"/>
<path d="M0.429444 3.57385C0.429445 3.15101 0.554767 2.73766 0.789576 2.38601C1.02439 2.03436 1.35815 1.76019 1.7487 1.59814C2.13925 1.43609 2.56907 1.39342 2.98386 1.47553C3.39865 1.55764 3.7798 1.76085 4.07916 2.05947C4.37851 2.3581 4.58265 2.73874 4.66578 3.15333C4.74891 3.56792 4.70729 3.99784 4.5462 4.38879C4.38511 4.77974 4.11176 5.11417 3.76069 5.34984C3.40962 5.58551 2.99658 5.71185 2.57374 5.71289C2.29233 5.71381 2.01351 5.65915 1.75328 5.55205C1.49305 5.44494 1.25653 5.2875 1.0573 5.08876C0.858065 4.89001 0.700042 4.65388 0.592299 4.39391C0.484556 4.13395 0.429212 3.85526 0.429444 3.57385Z" fill="white"/>
<path d="M4.65504 4.06445C4.92641 2.91468 4.21433 1.76262 3.06456 1.49125C1.91479 1.21988 0.762729 1.93197 0.491359 3.08173C0.219989 4.2315 0.932071 5.38356 2.08184 5.65493C3.23161 5.9263 4.38367 5.21422 4.65504 4.06445Z" stroke="white" stroke-width="0.81"/>
<path d="M54.0936 16.0769H55.46L55.6878 12.5732H54.5263V4.68624H52.8918V12.5784H48.4911V4.68624H46.8426V14.0658H54.0936V16.0769ZM57.1541 14.0658H58.708L63.4381 7.23347V14.0658H65.0603V4.68624H63.5187L58.7763 11.5326V4.68624H57.1541V14.0658ZM71.6053 14.4284H73.2398V13.4088C76.2022 13.4088 77.9296 11.6937 77.9296 9.30944C77.9296 6.92514 76.1777 5.23458 73.2398 5.23458V4.35864H71.6071V5.23458C68.6727 5.23458 66.9173 6.90937 66.9173 9.29543C66.9173 11.6815 68.6587 13.4088 71.6071 13.4088L71.6053 14.4284ZM71.6053 11.9495C69.7571 11.9495 68.6043 10.9842 68.6043 9.3217C68.6043 7.68721 69.7571 6.70966 71.6053 6.70966V11.9495ZM73.2398 11.9495V6.70966C75.1021 6.70966 76.2408 7.68721 76.2408 9.3217C76.2408 10.9842 75.1021 11.9495 73.2398 11.9495ZM79.7796 14.0658H81.4281V11.0508H83.2921C85.3558 11.0508 87.0446 9.95238 87.0446 7.84838C87.0446 5.93183 85.6641 4.695 83.4795 4.695H79.7813L79.7796 14.0658ZM81.4281 9.56346V6.1876H83.3446C84.5709 6.1876 85.3663 6.76222 85.3663 7.86239C85.3663 8.86622 84.5902 9.56346 83.3446 9.56346H81.4281ZM93.2059 14.227C96.086 14.227 98.1234 12.0161 98.1234 9.37601C98.1234 6.73594 96.1158 4.52507 93.2427 4.52507C90.3696 4.52507 88.3252 6.73594 88.3252 9.37601C88.3252 12.0424 90.3346 14.227 93.2164 14.227H93.2059ZM93.2427 12.7133C91.3805 12.7133 90.0543 11.198 90.0543 9.38477C90.0543 7.53479 91.3542 6.05621 93.2077 6.05621C95.0612 6.05621 96.3961 7.57158 96.3961 9.38477C96.3961 11.2348 95.0962 12.7133 93.2427 12.7133ZM100.126 14.0658H104.455C106.545 14.0658 107.925 13.1688 107.925 11.494C107.925 10.1941 107.161 9.56697 106.063 9.18856C106.764 8.82592 107.403 8.22328 107.403 7.09857C107.412 6.8065 107.361 6.51569 107.252 6.24438C107.144 5.97306 106.98 5.72709 106.772 5.52189C106.236 4.98581 105.392 4.6915 104.32 4.6915H100.115L100.126 14.0658ZM101.746 8.63497V6.14731H104.104C105.155 6.14731 105.753 6.60279 105.753 7.33858C105.753 8.21452 105.043 8.63847 103.983 8.63847L101.746 8.63497ZM101.746 12.6012V10.033H104.36C105.66 10.033 106.287 10.5025 106.287 11.2926C106.287 12.1685 105.604 12.6047 104.479 12.6047L101.746 12.6012ZM109.805 14.0623H113.564C115.735 14.0623 117.102 12.8833 117.102 10.993C117.102 9.10272 115.682 8.06386 113.58 8.06386H111.422V4.68624H109.787L109.805 14.0623ZM111.439 12.589V9.49689H113.512C114.759 9.49689 115.469 10.0225 115.469 10.9842C115.469 12.0354 114.768 12.5925 113.542 12.5925L111.439 12.589ZM118.233 14.0623H119.868V4.68624H118.233V14.0623ZM122.277 14.0623H129.298V12.589H123.901V10.0733H128.604V8.59818H123.901V6.15957H129.207V4.68624H122.259L122.277 14.0623ZM49.148 31.567H50.8106V23.7151H53.7887V22.1875H46.1733V23.7151H49.1515L49.148 31.567ZM55.5319 31.567H57.1804V28.5608H59.0426C61.1063 28.5608 62.7951 27.4624 62.7951 25.3584C62.7951 23.4418 61.4147 22.205 59.2301 22.205H55.5319V31.567ZM57.1804 27.0647V23.6888H59.0969C60.3232 23.6888 61.1203 24.2634 61.1203 25.3636C61.1203 26.3674 60.3425 27.0647 59.0969 27.0647H57.1804ZM63.6798 31.567H65.3686L66.3322 29.3018H70.7679L71.7192 31.567H73.4711L69.3436 22.1209H67.816L63.6798 31.567ZM66.9366 27.8425L68.5413 24.09L70.1635 27.8425H66.9366ZM75.0705 31.567H76.7173V27.6148H81.1933V31.567H82.8418V22.1875H81.1933V26.0871H76.7173V22.1875H75.0705V31.567ZM89.6111 31.7282C91.363 31.7282 92.4386 31.0852 93.4162 30.0657L92.365 28.9953C91.5609 29.7451 90.8251 30.2216 89.6724 30.2216C87.8767 30.2216 86.5768 28.7202 86.5768 26.8842C86.5768 25.0483 87.8767 23.5557 89.6724 23.5557C90.7445 23.5557 91.5487 24.0252 92.3002 24.7224L93.3513 23.4961C92.4544 22.6377 91.4085 22.0351 89.6724 22.0351C86.8326 22.0351 84.8355 24.2196 84.8355 26.886C84.8355 29.6067 86.8729 31.7369 89.6058 31.7369L89.6111 31.7282ZM99.2587 31.9384H100.893V30.9188C103.854 30.9188 105.583 29.2037 105.583 26.8194C105.583 24.4351 103.831 22.7463 100.893 22.7463V21.8704H99.2587V22.7463C96.3225 22.7463 94.5671 24.4194 94.5671 26.8054C94.5671 29.1915 96.319 30.9188 99.2587 30.9188V31.9384ZM99.2587 29.4595C97.4087 29.4595 96.2559 28.4942 96.2559 26.8317C96.2559 25.1972 97.4087 24.2197 99.2587 24.2197V29.4595ZM100.893 29.4595V24.2109C102.755 24.2109 103.894 25.1884 103.894 26.8229C103.894 28.4855 102.755 29.4508 100.893 29.4508V29.4595ZM111.907 31.7282C114.789 31.7282 116.825 29.5173 116.825 26.8772C116.825 24.2372 114.815 22.0263 111.933 22.0263C109.052 22.0263 107.016 24.2372 107.016 26.8772C107.016 29.5436 109.027 31.7282 111.907 31.7282ZM111.933 30.2146C110.071 30.2146 108.745 28.6992 108.745 26.8772C108.745 25.0273 110.045 23.5487 111.898 23.5487C113.752 23.5487 115.089 25.0641 115.089 26.8772C115.089 28.7272 113.789 30.2146 111.925 30.2146H111.933ZM118.82 31.567H120.469V28.5608H122.324C124.388 28.5608 126.076 27.4624 126.076 25.3584C126.076 23.4418 124.696 22.205 122.511 22.205H118.82V31.567ZM120.469 27.0647V23.6888H122.385C123.611 23.6888 124.409 24.2634 124.409 25.3636C124.409 26.3674 123.631 27.0647 122.385 27.0647H120.469ZM127.77 31.567H129.393V24.8678L132.324 29.2615H132.376L135.339 24.8381V31.5653H136.987V22.1875H135.235L132.38 26.6232L129.526 22.1875H127.774L127.77 31.567ZM138.601 31.567H140.289L141.253 29.3018H145.689L146.64 31.567H148.392L144.264 22.1209H142.737L138.601 31.567ZM141.855 27.8425L143.464 24.09L145.086 27.8425H141.855ZM157.24 33.5782H158.607L158.835 30.0744H157.67V22.191H156.035V30.0744H151.64V22.191H149.991V31.5705H157.24V33.5782ZM160.303 31.567H161.857L166.587 24.7347V31.567H168.209V22.1875H166.667L161.916 29.0356V22.1875H160.294L160.303 31.567ZM170.639 31.567H172.193L176.923 24.7347V31.567H178.545V22.1875H177.003L172.252 29.0356V22.1875H170.63L170.639 31.567Z" fill="white"/>
</svg>
