<svg width="61" height="12" viewBox="0 0 61 12" fill="none" xmlns="http://www.w3.org/2000/svg">
<path d="M11.5536 0.493355L8.68894 9.27512L5.76097 0.493355H0V11.1287H3.14954V2.21021L6.4257 11.1287H10.873L14.1492 2.21021V11.1287H17.2987L17.3146 0.493355H11.5536Z" fill="white"/>
<path d="M30.4965 0.493355H33.8518L28.9772 11.1287H23.9126L19.0537 0.493355H22.2982L23.2004 2.54446H29.5944L30.4965 0.493355ZM24.2608 4.91463L26.3974 9.77651L28.5498 4.91463H24.2608Z" fill="white"/>
<path d="M44.4689 7.20883C44.1365 8.05965 43.0128 8.74336 41.0977 8.74336C38.4705 8.74336 37.141 7.55827 37.141 5.81103C37.141 4.0638 38.423 2.87871 40.892 2.87871C42.5855 2.87871 43.8991 3.42568 44.2631 4.26131L47.4285 4.0638C46.9378 1.78479 44.5955 0.311035 40.892 0.311035C36.4288 0.311035 33.849 2.36214 33.849 5.81103C33.849 9.25993 36.4763 11.311 41.0977 11.311C44.9753 11.311 47.2227 9.94363 47.6659 7.36076L44.4689 7.20883Z" fill="white"/>
<path d="M48.3702 3.07623H53.0391V11.1287H56.3311V3.07623H61V0.493355H48.3702V3.07623Z" fill="white"/>
</svg>
