<svg width="12" height="13" viewBox="0 0 12 13" fill="none" xmlns="http://www.w3.org/2000/svg">
<path d="M0 6.16724C0 4.98055 0.351893 3.82051 1.01118 2.83381C1.67047 1.84712 2.60754 1.07809 3.7039 0.623962C4.80026 0.169836 6.00666 0.0510159 7.17054 0.282527C8.33443 0.514039 9.40353 1.08548 10.2426 1.9246C11.0818 2.76371 11.6532 3.83281 11.8847 4.9967C12.1162 6.16058 11.9974 7.36699 11.5433 8.46335C11.0892 9.5597 10.3201 10.4968 9.33342 11.1561C8.34673 11.8154 7.18669 12.1672 6 12.1672C4.4087 12.1672 2.88258 11.5351 1.75736 10.4099C0.63214 9.28466 0 7.75854 0 6.16724Z" fill="url(#paint0_linear)"/>
<defs>
<linearGradient id="paint0_linear" x1="6" y1="0.167236" x2="6" y2="12.1672" gradientUnits="userSpaceOnUse">
<stop stop-color="#EAA853"/>
<stop offset="1" stop-color="#E7A652"/>
</linearGradient>
</defs>
</svg>
