<svg width="179" height="22" viewBox="0 0 179 22" fill="none" xmlns="http://www.w3.org/2000/svg">
<g clip-path="url(#clip0)">
<rect x="0.541176" y="1.34245" width="19.4824" height="19.4824" rx="9.74118" fill="white" stroke="white" stroke-width="1.08235"/>
<path d="M10.0924 14H8.58943L6.91543 11.561H6.00643V14H4.74643V7.7H7.55443C7.96843 7.7 8.34043 7.763 8.67043 7.889C9.00043 8.009 9.27643 8.222 9.49843 8.528C9.72043 8.834 9.83143 9.212 9.83143 9.662C9.83143 10.208 9.68743 10.631 9.39943 10.931C9.11143 11.231 8.72443 11.423 8.23843 11.507L10.0924 14ZM6.00643 8.708V10.616H7.40143C7.76743 10.616 8.05243 10.535 8.25643 10.373C8.46643 10.211 8.57143 9.974 8.57143 9.662C8.57143 9.35 8.46643 9.113 8.25643 8.951C8.05243 8.789 7.76743 8.708 7.40143 8.708H6.00643ZM10.9339 11.552V7.7H12.1939V11.462C12.1939 12.536 12.6589 13.073 13.5889 13.073C14.0689 13.073 14.4199 12.941 14.6419 12.677C14.8699 12.407 14.9839 12.002 14.9839 11.462V7.7H16.2439V11.552C16.2439 13.256 15.3589 14.108 13.5889 14.108C11.8189 14.108 10.9339 13.256 10.9339 11.552Z" fill="#1822B7"/>
</g>
<g clip-path="url(#clip1)">
<rect x="25.9765" y="1.34245" width="19.4824" height="19.4824" rx="9.74118" stroke="white" stroke-width="1.08235"/>
<path d="M29.9005 14V7.7H34.4905V8.69H31.1605V10.328H33.7705V11.264H31.1605V13.01H34.6165V14H29.9005ZM39.8957 7.7H41.0927V14H38.9867L36.8897 8.501V14H35.6837V7.7H37.7987L39.8957 13.199V7.7Z" fill="white"/>
</g>
<path d="M73.2026 11.4597C73.9026 11.6464 74.4579 11.9544 74.8686 12.3837C75.2793 12.8037 75.4846 13.3357 75.4846 13.9797C75.4846 14.8664 75.1113 15.5524 74.3646 16.0377C73.6179 16.5137 72.7079 16.7517 71.6346 16.7517C70.5519 16.7517 69.6373 16.5137 68.8906 16.0377C68.1439 15.5524 67.7706 14.8664 67.7706 13.9797C67.7706 13.3357 67.9759 12.8037 68.3866 12.3837C68.8066 11.9544 69.3713 11.6464 70.0806 11.4597C68.7179 11.1144 68.0366 10.3537 68.0366 9.17774C68.0366 8.35641 68.3819 7.72641 69.0726 7.28774C69.7633 6.83974 70.6173 6.61574 71.6346 6.61574C72.6519 6.61574 73.5013 6.83974 74.1826 7.28774C74.8733 7.72641 75.2186 8.35641 75.2186 9.17774C75.2186 10.3444 74.5466 11.1051 73.2026 11.4597ZM72.9086 8.46374C72.6006 8.22107 72.1759 8.09974 71.6346 8.09974C71.0933 8.09974 70.6639 8.22107 70.3466 8.46374C70.0293 8.69707 69.8706 9.02374 69.8706 9.44374C69.8706 9.86374 70.0293 10.1951 70.3466 10.4377C70.6639 10.6711 71.0933 10.7877 71.6346 10.7877C72.1666 10.7877 72.5913 10.6711 72.9086 10.4377C73.2259 10.1951 73.3846 9.86374 73.3846 9.44374C73.3846 9.02374 73.2259 8.69707 72.9086 8.46374ZM70.1786 14.8757C70.5613 15.1371 71.0466 15.2677 71.6346 15.2677C72.2226 15.2677 72.7033 15.1371 73.0766 14.8757C73.4593 14.6051 73.6506 14.2317 73.6506 13.7557C73.6506 13.2797 73.4593 12.9111 73.0766 12.6497C72.7033 12.3791 72.2226 12.2437 71.6346 12.2437C71.0466 12.2437 70.5613 12.3791 70.1786 12.6497C69.8053 12.9111 69.6186 13.2797 69.6186 13.7557C69.6186 14.2317 69.8053 14.6051 70.1786 14.8757ZM84.0585 6.27974C82.5558 7.84774 81.8045 9.91041 81.8045 12.4677C81.8045 15.0251 82.5558 17.0877 84.0585 18.6557H82.4765C81.8138 18.0584 81.2492 17.2464 80.7825 16.2197C80.3158 15.1837 80.0825 13.9331 80.0825 12.4677C80.0825 11.0024 80.3158 9.75641 80.7825 8.72974C81.2492 7.69374 81.8138 6.87707 82.4765 6.27974H84.0585ZM89.9643 11.4597C90.6643 11.6464 91.2197 11.9544 91.6303 12.3837C92.041 12.8037 92.2463 13.3357 92.2463 13.9797C92.2463 14.8664 91.873 15.5524 91.1263 16.0377C90.3797 16.5137 89.4697 16.7517 88.3963 16.7517C87.3137 16.7517 86.399 16.5137 85.6523 16.0377C84.9057 15.5524 84.5323 14.8664 84.5323 13.9797C84.5323 13.3357 84.7377 12.8037 85.1483 12.3837C85.5683 11.9544 86.133 11.6464 86.8423 11.4597C85.4797 11.1144 84.7983 10.3537 84.7983 9.17774C84.7983 8.35641 85.1437 7.72641 85.8343 7.28774C86.525 6.83974 87.379 6.61574 88.3963 6.61574C89.4137 6.61574 90.263 6.83974 90.9443 7.28774C91.635 7.72641 91.9803 8.35641 91.9803 9.17774C91.9803 10.3444 91.3083 11.1051 89.9643 11.4597ZM89.6703 8.46374C89.3623 8.22107 88.9377 8.09974 88.3963 8.09974C87.855 8.09974 87.4257 8.22107 87.1083 8.46374C86.791 8.69707 86.6323 9.02374 86.6323 9.44374C86.6323 9.86374 86.791 10.1951 87.1083 10.4377C87.4257 10.6711 87.855 10.7877 88.3963 10.7877C88.9283 10.7877 89.353 10.6711 89.6703 10.4377C89.9877 10.1951 90.1463 9.86374 90.1463 9.44374C90.1463 9.02374 89.9877 8.69707 89.6703 8.46374ZM86.9403 14.8757C87.323 15.1371 87.8083 15.2677 88.3963 15.2677C88.9843 15.2677 89.465 15.1371 89.8383 14.8757C90.221 14.6051 90.4123 14.2317 90.4123 13.7557C90.4123 13.2797 90.221 12.9111 89.8383 12.6497C89.465 12.3791 88.9843 12.2437 88.3963 12.2437C87.8083 12.2437 87.323 12.3791 86.9403 12.6497C86.567 12.9111 86.3803 13.2797 86.3803 13.7557C86.3803 14.2317 86.567 14.6051 86.9403 14.8757ZM94.403 15.4077C93.731 14.5117 93.395 13.2704 93.395 11.6837C93.395 10.0971 93.731 8.85574 94.403 7.95974C95.075 7.06374 96.0363 6.61574 97.287 6.61574C98.5376 6.61574 99.499 7.06374 100.171 7.95974C100.843 8.85574 101.179 10.0971 101.179 11.6837C101.179 13.2704 100.843 14.5117 100.171 15.4077C99.499 16.3037 98.5376 16.7517 97.287 16.7517C96.0363 16.7517 95.075 16.3037 94.403 15.4077ZM95.831 9.06574C95.4763 9.67241 95.299 10.5451 95.299 11.6837C95.299 12.8224 95.4763 13.6951 95.831 14.3017C96.1856 14.9084 96.671 15.2117 97.287 15.2117C97.903 15.2117 98.3883 14.9084 98.743 14.3017C99.107 13.6951 99.289 12.8224 99.289 11.6837C99.289 10.5451 99.107 9.67241 98.743 9.06574C98.3883 8.45907 97.903 8.15574 97.287 8.15574C96.671 8.15574 96.1856 8.45907 95.831 9.06574ZM103.495 15.4077C102.823 14.5117 102.487 13.2704 102.487 11.6837C102.487 10.0971 102.823 8.85574 103.495 7.95974C104.167 7.06374 105.128 6.61574 106.379 6.61574C107.629 6.61574 108.591 7.06374 109.263 7.95974C109.935 8.85574 110.271 10.0971 110.271 11.6837C110.271 13.2704 109.935 14.5117 109.263 15.4077C108.591 16.3037 107.629 16.7517 106.379 16.7517C105.128 16.7517 104.167 16.3037 103.495 15.4077ZM104.923 9.06574C104.568 9.67241 104.391 10.5451 104.391 11.6837C104.391 12.8224 104.568 13.6951 104.923 14.3017C105.277 14.9084 105.763 15.2117 106.379 15.2117C106.995 15.2117 107.48 14.9084 107.835 14.3017C108.199 13.6951 108.381 12.8224 108.381 11.6837C108.381 10.5451 108.199 9.67241 107.835 9.06574C107.48 8.45907 106.995 8.15574 106.379 8.15574C105.763 8.15574 105.277 8.45907 104.923 9.06574ZM112.136 6.27974C112.799 6.87707 113.363 7.69374 113.83 8.72974C114.306 9.75641 114.544 11.0024 114.544 12.4677C114.544 13.9331 114.306 15.1837 113.83 16.2197C113.363 17.2464 112.799 18.0584 112.136 18.6557H110.554C112.066 17.0971 112.822 15.0344 112.822 12.4677C112.822 9.90107 112.066 7.83841 110.554 6.27974H112.136ZM121.303 6.78374H122.829V16.5837H120.925V8.86974L118.671 10.3117V8.44974L121.303 6.78374ZM125.848 15.4077C125.176 14.5117 124.84 13.2704 124.84 11.6837C124.84 10.0971 125.176 8.85574 125.848 7.95974C126.52 7.06374 127.482 6.61574 128.732 6.61574C129.983 6.61574 130.944 7.06374 131.616 7.95974C132.288 8.85574 132.624 10.0971 132.624 11.6837C132.624 13.2704 132.288 14.5117 131.616 15.4077C130.944 16.3037 129.983 16.7517 128.732 16.7517C127.482 16.7517 126.52 16.3037 125.848 15.4077ZM127.276 9.06574C126.922 9.67241 126.744 10.5451 126.744 11.6837C126.744 12.8224 126.922 13.6951 127.276 14.3017C127.631 14.9084 128.116 15.2117 128.732 15.2117C129.348 15.2117 129.834 14.9084 130.188 14.3017C130.552 13.6951 130.734 12.8224 130.734 11.6837C130.734 10.5451 130.552 9.67241 130.188 9.06574C129.834 8.45907 129.348 8.15574 128.732 8.15574C128.116 8.15574 127.631 8.45907 127.276 9.06574ZM134.94 15.4077C134.268 14.5117 133.932 13.2704 133.932 11.6837C133.932 10.0971 134.268 8.85574 134.94 7.95974C135.612 7.06374 136.573 6.61574 137.824 6.61574C139.075 6.61574 140.036 7.06374 140.708 7.95974C141.38 8.85574 141.716 10.0971 141.716 11.6837C141.716 13.2704 141.38 14.5117 140.708 15.4077C140.036 16.3037 139.075 16.7517 137.824 16.7517C136.573 16.7517 135.612 16.3037 134.94 15.4077ZM136.368 9.06574C136.013 9.67241 135.836 10.5451 135.836 11.6837C135.836 12.8224 136.013 13.6951 136.368 14.3017C136.723 14.9084 137.208 15.2117 137.824 15.2117C138.44 15.2117 138.925 14.9084 139.28 14.3017C139.644 13.6951 139.826 12.8224 139.826 11.6837C139.826 10.5451 139.644 9.67241 139.28 9.06574C138.925 8.45907 138.44 8.15574 137.824 8.15574C137.208 8.15574 136.723 8.45907 136.368 9.06574ZM147.313 15.4077C146.641 14.5117 146.305 13.2704 146.305 11.6837C146.305 10.0971 146.641 8.85574 147.313 7.95974C147.985 7.06374 148.946 6.61574 150.197 6.61574C151.448 6.61574 152.409 7.06374 153.081 7.95974C153.753 8.85574 154.089 10.0971 154.089 11.6837C154.089 13.2704 153.753 14.5117 153.081 15.4077C152.409 16.3037 151.448 16.7517 150.197 16.7517C148.946 16.7517 147.985 16.3037 147.313 15.4077ZM148.741 9.06574C148.386 9.67241 148.209 10.5451 148.209 11.6837C148.209 12.8224 148.386 13.6951 148.741 14.3017C149.096 14.9084 149.581 15.2117 150.197 15.2117C150.813 15.2117 151.298 14.9084 151.653 14.3017C152.017 13.6951 152.199 12.8224 152.199 11.6837C152.199 10.5451 152.017 9.67241 151.653 9.06574C151.298 8.45907 150.813 8.15574 150.197 8.15574C149.581 8.15574 149.096 8.45907 148.741 9.06574ZM156.405 15.4077C155.733 14.5117 155.397 13.2704 155.397 11.6837C155.397 10.0971 155.733 8.85574 156.405 7.95974C157.077 7.06374 158.038 6.61574 159.289 6.61574C160.54 6.61574 161.501 7.06374 162.173 7.95974C162.845 8.85574 163.181 10.0971 163.181 11.6837C163.181 13.2704 162.845 14.5117 162.173 15.4077C161.501 16.3037 160.54 16.7517 159.289 16.7517C158.038 16.7517 157.077 16.3037 156.405 15.4077ZM157.833 9.06574C157.478 9.67241 157.301 10.5451 157.301 11.6837C157.301 12.8224 157.478 13.6951 157.833 14.3017C158.188 14.9084 158.673 15.2117 159.289 15.2117C159.905 15.2117 160.39 14.9084 160.745 14.3017C161.109 13.6951 161.291 12.8224 161.291 11.6837C161.291 10.5451 161.109 9.67241 160.745 9.06574C160.39 8.45907 159.905 8.15574 159.289 8.15574C158.673 8.15574 158.188 8.45907 157.833 9.06574ZM169.797 6.78374H171.323V16.5837H169.419V8.86974L167.165 10.3117V8.44974L169.797 6.78374ZM175.84 6.78374H177.366V16.5837H175.462V8.86974L173.208 10.3117V8.44974L175.84 6.78374Z" fill="white"/>
<defs>
<clipPath id="clip0">
<rect width="20.5647" height="20.5647" fill="white" transform="translate(0 0.80127)"/>
</clipPath>
<clipPath id="clip1">
<rect width="20.5647" height="20.5647" fill="white" transform="translate(25.4353 0.80127)"/>
</clipPath>
</defs>
</svg>
